<svg width="330" height="294" viewBox="0 0 330 294" fill="none" xmlns="http://www.w3.org/2000/svg">
<g opacity="0.08">
<rect width="320" height="294" rx="16" fill="#6D4AD3"/>
<rect width="320" height="294" rx="16" fill="url(#paint0_linear_103_90)"/>
<rect width="320" height="294" rx="16" fill="url(#paint1_radial_103_90)"/>
<rect width="320" height="294" rx="16" fill="url(#paint2_radial_103_90)"/>
<rect width="320" height="294" rx="16" fill="url(#paint3_radial_103_90)"/>
</g>
<g clip-path="url(#clip0_103_90)">
<g opacity="0.5">
<path d="M64.0998 87.0389C67.9433 87.3147 74.2278 85.0983 74.4421 80.9099C74.5159 79.3007 73.8434 77.632 73.1467 76.0477C79.2189 78.2585 85.8335 77.9744 85.7602 70.9683C85.7485 68.1785 83.2485 61.7075 79.278 63.4099C81.8597 61.9682 84.3951 60.2559 86.0346 57.8343C87.7051 55.367 88.2898 51.9866 86.841 48.948C84.2631 43.6085 76.7843 41.7813 71.401 43.1505C73.0932 37.4085 66.9641 30.1029 60.3326 29.1538C53.7386 28.1975 48.0003 32.7046 46.8048 38.6326C43.536 33.1037 35.8393 30.0011 30.3233 31.9537C24.8072 33.9063 22.2712 40.6044 24.9217 46.369C19.6616 44.604 13.9624 46.3915 11.397 50.4228C8.8315 54.4541 9.49054 60.3532 12.8129 64.835C16.1287 69.2782 21.8805 72.1076 27.1747 72.0314C24.7594 76.0345 25.6559 79.6953 28.5641 82.6595C29.974 84.1099 31.8236 84.9594 33.7862 85.1096C42.6258 85.6045 44.9966 82.2479 49.2668 77.5378C52.6375 82.5291 58.2936 86.6128 64.0998 87.0389Z" fill="url(#paint4_linear_103_90)" fill-opacity="0.66"/>
</g>
<path d="M228.499 127.733C220.157 128.432 206.448 123.78 205.874 114.687C205.672 111.194 207.09 107.551 208.562 104.092C195.429 109.052 181.053 108.606 181.031 93.3851C180.984 87.3247 186.247 73.2036 194.916 76.7987C189.271 73.7338 183.719 70.08 180.095 64.8622C176.402 59.5459 175.044 52.2181 178.113 45.58C183.574 33.9145 199.773 29.7517 211.502 32.5865C207.677 20.1574 220.802 4.12929 235.182 1.89564C249.481 -0.352335 262.063 9.28935 264.813 22.1354C271.771 10.0405 288.409 3.10171 300.442 7.2002C312.475 11.2987 318.157 25.7828 312.549 38.3736C323.929 34.4034 336.356 38.1386 342.033 46.829C347.71 55.5194 346.431 68.3506 339.33 78.1723C332.243 87.9099 319.822 94.2049 308.32 94.1766C313.67 102.81 311.817 110.785 305.577 117.299C302.552 120.486 298.556 122.38 294.297 122.757C275.108 124.061 269.871 116.831 260.473 106.71C253.281 117.64 241.1 126.657 228.499 127.733Z" fill="url(#paint5_linear_103_90)" fill-opacity="0.66"/>
<path d="M186.043 155.382C204.029 149.738 236.444 153.207 242.184 172.904C244.349 180.482 243.029 189.183 241.497 197.511C267.913 180.143 299.722 174.041 307.268 207.476C310.357 220.77 305.748 254.392 284.928 250.763C298.843 254.717 312.843 260.011 323.377 269.691C334.109 279.554 340.703 294.988 337.23 311.086C330.976 339.41 297.432 356.537 270.261 356.085C284.788 381.513 263.844 423.199 233.344 435.191C203.03 447.174 170.634 432.185 158.262 405.312C148.932 435.317 115.788 458.76 87.3285 455.682C58.8687 452.603 39.2473 423.574 45.3684 393.145C22.3168 407.475 -6.82885 405.388 -23.5849 389.089C-40.3409 372.789 -43.8517 343.963 -33.0864 318.883C-22.309 293.994 1.88395 274.043 27.1731 268.439C11.1636 252.104 11.3058 233.667 21.8096 216.279C26.887 207.784 34.7348 201.656 43.9086 198.729C85.4317 186.411 100.501 199.719 126.137 217.329C136.558 189.769 158.882 163.954 186.043 155.382Z" fill="url(#paint6_linear_103_90)" fill-opacity="0.66"/>
</g>
<path d="M197.431 134.128C196.08 134.128 194.578 134.308 192.957 134.759C180.918 139.202 136.064 156.675 134.683 156.135C133.302 155.595 120.422 143.195 119.341 141.574C118.26 139.953 118.531 137.731 116.939 138.421C115.348 139.112 113.667 145.927 114.057 148.719C114.357 150.851 122.644 160.458 125.616 166.313C127.567 170.156 129.369 170.726 131.02 170.276C132.671 169.825 134.142 168.354 135.403 168.084C138.616 167.424 147.112 164.601 147.112 164.601L194.158 156.405L211.661 199.128L240.844 190.691L207.819 140.013C206.558 137.761 203.285 134.158 197.431 134.128Z" fill="#F8D1B5"/>
<path d="M200.853 272.984H287.079V276.226H200.853V272.984Z" fill="#FFDE7E"/>
<path d="M274.379 232.783L296.176 293.969H291.583L266.814 232.753H274.379V232.783Z" fill="#FFDE7E"/>
<path d="M247.869 232.783L226.102 294H230.696L255.465 232.783H247.869Z" fill="#FFDE7E"/>
<path d="M215.384 232.783L193.617 294H198.211L222.979 232.783H215.384Z" fill="#FFDE7E"/>
<path d="M241.895 232.783L263.661 294H259.068L234.329 232.783H241.895Z" fill="#FFDE7E"/>
<path d="M271.166 143.045C271.166 143.045 310.617 145.837 310.046 169.465C309.506 193.093 285.397 230.291 271.347 235.485C257.296 240.679 213.132 239.598 200.463 231.042C187.793 222.515 194.728 207.714 205.957 209.125C217.155 210.536 252.252 195.224 255.194 177.991C258.137 160.788 263.24 143.975 271.166 143.045Z" fill="#FFDE7E"/>
<path d="M124.115 136.137C122.253 136.077 117.239 140.431 115.948 142.892C114.958 144.814 116.129 157.454 115.138 163.939C114.507 168.202 115.648 169.703 117.239 170.303C118.831 170.904 120.902 170.544 122.073 171.084C125.075 172.405 220.398 214.317 242.525 221.282C273.058 230.859 277.081 201.107 277.081 201.107L240.844 190.749L136.124 163.969C136.124 163.969 129.219 162.137 128.438 160.906C127.627 159.675 124.325 142.082 124.385 140.16C124.445 138.239 125.976 136.558 124.265 136.197C124.235 136.167 124.175 136.137 124.115 136.137Z" fill="#F8D1B5"/>
<path d="M215.084 147.337C214.693 147.337 214.303 147.427 213.853 147.607C211.061 148.808 195.629 160.277 193.918 162.408C192.206 164.54 196.439 167.662 198.001 169.794C199.202 171.445 211.391 190.99 220.368 203.81L246.067 193.332L227.153 163.369C225.772 159.466 224.121 157.335 222.379 155.803L218.386 149.469C218.356 149.439 217.125 147.277 215.084 147.337Z" fill="#6D4AD3"/>
<path d="M240.843 190.691L216.735 182.705C214.873 181.414 213.462 179.793 209.109 180.183L200.192 177.211C200.192 177.211 197.01 175.8 195.478 178.412C193.947 181.054 188.363 199.428 188.243 202.16C188.123 204.892 193.377 204.892 195.899 205.672C196.95 206.003 202.594 210.926 209.289 213.508C218.746 217.171 230.635 218.912 237.3 220.384C248.679 222.905 269.034 223.566 274.288 215.46C279.542 207.354 277.081 201.049 277.081 201.049L240.843 190.691Z" fill="#6D4AD3"/>
<path d="M291.192 197.446C291.192 197.446 293.173 208.614 266.903 208.614C240.633 208.614 228.144 219.573 226.192 223.506C224.211 227.439 258.167 235.755 275.67 223.956C293.143 212.097 291.192 197.446 291.192 197.446Z" fill="#FFDE7E"/>
<path d="M242.735 184.956C242.585 184.926 236.7 189.159 238.862 190.15C250.961 195.584 263.451 200.267 277.682 201.829C280.114 202.099 278.582 195.284 278.432 195.224L242.735 184.956Z" fill="white"/>
<path d="M295.876 143.855C296.146 144.366 296.416 144.846 296.656 145.416C297.077 146.377 297.467 147.428 297.827 148.569C298.188 149.71 298.578 150.761 299.028 151.781C299.449 152.802 299.929 153.733 300.409 154.633C300.89 155.534 301.4 156.375 301.94 157.185C302.481 157.996 303.021 158.717 303.592 159.437C304.102 160.098 304.643 160.668 305.213 161.239C312.178 156.285 319.894 150.941 324.548 148.239C329.261 145.386 331.873 138.241 327.4 133.768C323.047 129.384 290.111 121.338 290.111 121.338L289.091 128.394L309.987 139.772L295.876 143.855Z" fill="#F8D1B5"/>
<path d="M237.181 143.045C243.335 147.638 249.82 152.412 251.021 153.313C248.92 158.687 248.74 164.391 247.659 165.802L247.028 177.691C242.945 181.504 237.721 186.068 240.874 187.268C252.943 193.483 265.943 196.125 279.063 198.227C282.035 197.566 283.776 192.432 281.675 189.04C282.695 186.248 287.049 176.851 290.231 172.077C290.231 172.077 297.196 166.913 305.213 161.239C304.672 160.668 304.132 160.068 303.591 159.437C303.021 158.747 302.48 157.996 301.94 157.186C301.4 156.375 300.889 155.534 300.409 154.634C299.929 153.733 299.448 152.772 299.028 151.781C298.608 150.761 298.187 149.71 297.827 148.569C297.467 147.428 297.076 146.407 296.656 145.417C296.416 144.846 296.146 144.366 295.875 143.855L290.351 145.447L286.088 143.945L284.197 142.144L276.271 141.363L247.539 128.634C247.388 129.114 247.208 129.625 247.028 130.135C246.728 130.855 246.428 131.606 246.037 132.357C245.647 133.107 245.227 133.888 244.746 134.698C244.266 135.479 243.696 136.29 243.095 137.1C242.495 137.911 241.804 138.721 241.054 139.532C240.303 140.343 239.492 141.153 238.592 141.964C238.141 142.294 237.631 142.654 237.181 143.045Z" fill="#FFCE00"/>
<path d="M186.562 85.4302C186.532 85.4302 186.472 85.4302 186.442 85.4302C185.901 85.5803 185.661 87.0514 186.322 88.1923C187.042 89.4232 188.003 89.9036 188.003 89.9036C188.003 89.9036 179.176 88.3724 173.052 92.0052C172.091 92.5756 172.391 93.9266 174.012 93.9266C175.213 93.9266 177.105 93.8966 178.606 94.0167C177.555 94.1068 176.384 94.347 175.243 94.8574C172.871 95.9682 172.511 96.7188 172.721 97.3793C172.901 98.0698 176.534 96.959 178.396 96.8689C179.567 96.8088 181.518 97.2592 182.779 97.5894C183.68 99.2107 184.791 100.952 185.781 101.612C186.832 102.303 190.615 102.273 193.707 102.123C194.038 102.723 196.409 105.365 196.83 106.116C196.83 106.116 222.229 131.966 225.622 134.458C227.123 135.538 232.047 139.231 237.18 143.044C237.631 142.654 238.141 142.293 238.561 141.903C239.462 141.093 240.273 140.282 241.023 139.471C241.774 138.661 242.434 137.85 243.065 137.039C243.665 136.229 244.236 135.448 244.716 134.638C245.197 133.857 245.647 133.076 246.007 132.296C246.397 131.545 246.728 130.795 246.998 130.074C247.208 129.564 247.358 129.083 247.508 128.573L234.088 122.629L202.204 99.2407C202.204 99.2407 194.068 90.8643 192.687 89.8435C191.306 88.7927 187.823 86.481 186.922 85.5803C186.802 85.4902 186.682 85.4302 186.562 85.4302Z" fill="#F8D1B5"/>
<path d="M290.772 131.244C290.772 131.244 288.79 134.967 287.079 135.087C285.368 135.207 285.608 127.852 290.772 131.244Z" fill="url(#paint7_linear_103_90)"/>
<path d="M272.668 139.111C272.668 139.111 252.072 130.134 250.451 129.053C249.52 128.423 245.437 126.502 242.315 124.79C241.324 124.25 241.594 123.109 240.123 122.719C238.682 122.328 237.481 124.16 237.481 124.16C237.481 124.16 238.382 124.64 239.313 125.03C240.904 125.691 238.742 130.194 235.8 133.587C231.627 138.391 230.065 137.85 230.065 137.85L227.754 136.079C227.754 136.079 227.123 139.652 229.675 141.183C232.227 142.744 232.317 140.102 236.881 145.206C241.444 150.31 249.34 154.183 249.34 154.183C249.34 154.183 246.248 168.353 244.687 171.596C243.125 174.838 241.294 174.988 240.123 177.39C238.952 179.792 241.444 183.275 241.444 183.275C241.444 183.275 241.144 183.185 247.088 177.54C253.063 171.896 270.476 148.508 271.227 147.037C272.037 145.536 272.668 139.111 272.668 139.111Z" fill="#6D4AD3"/>
<path d="M271.107 136.258C270.867 136.258 270.717 136.348 270.656 136.498C270.206 137.669 270.957 142.233 269.426 144.304C268.585 145.445 263.871 150.459 260.028 157.394C258.587 162.708 255.315 164.84 254.324 169.373C259.008 161.898 268.795 152.771 271.947 146.406C273.989 142.323 276.301 141.362 276.301 141.362L277.802 138.93C277.772 138.96 272.668 136.168 271.107 136.258Z" fill="#6D4AD3"/>
<path d="M288.13 129.593L286.118 143.944C282.846 147.126 265.672 151.6 274.499 142.533L277.742 132.986L288.13 129.593Z" fill="#F8D1B5"/>
<path d="M278.312 115.543C278.312 115.543 277.412 116.594 276.961 117.435C275.73 119.656 277.232 121.398 277.232 121.398L280.894 112.781C280.894 112.811 278.853 113.952 278.312 115.543Z" fill="url(#paint8_linear_103_90)"/>
<path d="M279.183 115.333L274.649 128.963C274.649 128.963 272.788 133.737 278.222 136.078C283.626 138.42 287.259 133.196 288.25 130.464C289.211 127.732 290.652 123.289 292.063 118.965C293.474 114.672 281.465 108.427 279.183 115.333Z" fill="#F8D1B5"/>
<path d="M285.458 107.107C283.806 107.017 281.164 109.959 280.174 111.1C278.913 112.541 278.072 115.453 278.312 115.573C278.312 115.573 280.894 112.841 281.975 113.201C283.056 113.562 284.557 117.495 285.818 118.455C286.659 119.086 288.28 118.846 289.15 118.065C289 119.566 288.76 121.638 288.19 123.229C287.019 126.562 289.06 128.423 289.06 128.423C289.06 128.423 288.46 131.786 290.081 130.975C291.732 130.164 296.656 126.742 297.767 124.07C298.878 121.398 300.739 111.97 293.654 110.049C290.261 109.148 287.619 111.88 286.659 108.368C286.448 107.497 286.028 107.137 285.458 107.107Z" fill="#28004B"/>
<path d="M292.063 130.554C290.832 131.905 289 132.235 287.98 131.275C286.959 130.344 287.109 128.482 288.34 127.131C289.571 125.78 291.402 125.45 292.423 126.411C293.474 127.342 293.294 129.203 292.063 130.554Z" fill="#F8D1B5"/>
<path d="M286.719 139.771C286.719 139.771 277.232 140.942 277.652 142.353C278.072 143.794 279.363 146.196 278.373 148.208C277.412 150.219 259.398 188.769 268.225 194.923C277.052 201.078 282.156 205.131 284.798 202.189C287.44 199.247 283.717 194.923 285.248 190.27C286.809 185.616 290.172 172.106 290.172 172.106C290.172 172.106 304.913 162.589 309.987 159.646C313.71 159.646 313.079 156.974 312.298 156.194C311.758 156.464 311.128 156.914 310.797 157.215C308.335 155.113 304.853 150.099 304.583 146.166C304.432 144.125 304.553 142.353 305.123 141.303C305.243 141.062 306.294 140.912 306.354 140.762C306.384 138.871 303.262 138.811 302.331 140.462L290.202 144.215L287.259 143.284C287.319 143.284 287.86 140.252 286.719 139.771Z" fill="#6D4AD3"/>
<path d="M26 245C26 231.745 36.7452 221 50 221H279C292.255 221 303 231.745 303 245C303 258.255 292.255 269 279 269H50C36.7452 269 26 258.255 26 245Z" fill="#6D4AD3"/>
<path d="M52.486 244.702L48.762 239.088H50.918L53.41 243.26L55.93 239.088H57.974L54.25 244.702V249H52.486V244.702ZM57.1662 245.612C57.1662 245.08 57.2595 244.599 57.4462 244.17C57.6422 243.731 57.9035 243.358 58.2302 243.05C58.5568 242.742 58.9442 242.504 59.3922 242.336C59.8402 242.168 60.3162 242.084 60.8202 242.084C61.3242 242.084 61.8002 242.168 62.2482 242.336C62.6962 242.504 63.0835 242.742 63.4102 243.05C63.7368 243.358 63.9935 243.731 64.1802 244.17C64.3762 244.599 64.4742 245.08 64.4742 245.612C64.4742 246.144 64.3762 246.629 64.1802 247.068C63.9935 247.507 63.7368 247.885 63.4102 248.202C63.0835 248.51 62.6962 248.753 62.2482 248.93C61.8002 249.107 61.3242 249.196 60.8202 249.196C60.3162 249.196 59.8402 249.107 59.3922 248.93C58.9442 248.753 58.5568 248.51 58.2302 248.202C57.9035 247.885 57.6422 247.507 57.4462 247.068C57.2595 246.629 57.1662 246.144 57.1662 245.612ZM58.8742 245.612C58.8742 245.873 58.9115 246.135 58.9862 246.396C59.0702 246.657 59.1915 246.891 59.3502 247.096C59.5088 247.301 59.7095 247.469 59.9522 247.6C60.1948 247.731 60.4842 247.796 60.8202 247.796C61.1562 247.796 61.4455 247.731 61.6882 247.6C61.9308 247.469 62.1315 247.301 62.2902 247.096C62.4488 246.891 62.5655 246.657 62.6402 246.396C62.7242 246.135 62.7662 245.873 62.7662 245.612C62.7662 245.351 62.7242 245.094 62.6402 244.842C62.5655 244.581 62.4488 244.347 62.2902 244.142C62.1315 243.937 61.9308 243.773 61.6882 243.652C61.4455 243.521 61.1562 243.456 60.8202 243.456C60.4842 243.456 60.1948 243.521 59.9522 243.652C59.7095 243.773 59.5088 243.937 59.3502 244.142C59.1915 244.347 59.0702 244.581 58.9862 244.842C58.9115 245.094 58.8742 245.351 58.8742 245.612ZM72.3751 249H70.7791V247.922H70.7511C70.6017 248.258 70.3404 248.557 69.9671 248.818C69.6031 249.07 69.1691 249.196 68.6651 249.196C68.2264 249.196 67.8484 249.121 67.5311 248.972C67.2231 248.813 66.9664 248.608 66.7611 248.356C66.5651 248.104 66.4204 247.815 66.3271 247.488C66.2337 247.161 66.1871 246.825 66.1871 246.48V242.28H67.8671V246.004C67.8671 246.2 67.8811 246.405 67.9091 246.62C67.9371 246.835 67.9977 247.031 68.0911 247.208C68.1844 247.376 68.3104 247.516 68.4691 247.628C68.6371 247.74 68.8564 247.796 69.1271 247.796C69.3884 247.796 69.6171 247.745 69.8131 247.642C70.0184 247.53 70.1817 247.39 70.3031 247.222C70.4337 247.054 70.5317 246.863 70.5971 246.648C70.6624 246.424 70.6951 246.2 70.6951 245.976V242.28H72.3751V249ZM81.8535 244.072C81.7042 243.876 81.4988 243.708 81.2375 243.568C80.9762 243.419 80.6915 243.344 80.3835 243.344C80.1128 243.344 79.8655 243.4 79.6415 243.512C79.4175 243.624 79.3055 243.811 79.3055 244.072C79.3055 244.333 79.4268 244.52 79.6695 244.632C79.9215 244.735 80.2855 244.842 80.7615 244.954C81.0135 245.01 81.2655 245.085 81.5175 245.178C81.7788 245.271 82.0122 245.397 82.2175 245.556C82.4322 245.705 82.6048 245.897 82.7355 246.13C82.8662 246.354 82.9315 246.629 82.9315 246.956C82.9315 247.367 82.8522 247.717 82.6935 248.006C82.5442 248.286 82.3388 248.515 82.0775 248.692C81.8255 248.869 81.5268 248.995 81.1815 249.07C80.8455 249.154 80.4955 249.196 80.1315 249.196C79.6088 249.196 79.1002 249.103 78.6055 248.916C78.1108 248.72 77.7002 248.445 77.3735 248.09L78.4795 247.054C78.6662 247.297 78.9088 247.497 79.2075 247.656C79.5062 247.815 79.8375 247.894 80.2015 247.894C80.3228 247.894 80.4442 247.88 80.5655 247.852C80.6962 247.824 80.8128 247.782 80.9155 247.726C81.0275 247.661 81.1162 247.577 81.1815 247.474C81.2468 247.371 81.2795 247.245 81.2795 247.096C81.2795 246.816 81.1488 246.615 80.8875 246.494C80.6355 246.373 80.2528 246.251 79.7395 246.13C79.4875 246.074 79.2402 246.004 78.9975 245.92C78.7642 245.827 78.5542 245.71 78.3675 245.57C78.1808 245.421 78.0315 245.239 77.9195 245.024C77.8075 244.809 77.7515 244.543 77.7515 244.226C77.7515 243.853 77.8262 243.531 77.9755 243.26C78.1342 242.989 78.3395 242.77 78.5915 242.602C78.8435 242.425 79.1282 242.294 79.4455 242.21C79.7628 242.126 80.0895 242.084 80.4255 242.084C80.9108 242.084 81.3822 242.168 81.8395 242.336C82.3062 242.504 82.6748 242.761 82.9455 243.106L81.8535 244.072ZM88.2702 242.084C88.7089 242.084 89.0822 242.163 89.3902 242.322C89.7076 242.471 89.9642 242.672 90.1602 242.924C90.3656 243.176 90.5149 243.465 90.6082 243.792C90.7016 244.119 90.7482 244.455 90.7482 244.8V249H89.0682V245.304C89.0682 245.108 89.0542 244.907 89.0262 244.702C88.9982 244.487 88.9376 244.296 88.8442 244.128C88.7602 243.951 88.6342 243.806 88.4662 243.694C88.3076 243.582 88.0929 243.526 87.8222 243.526C87.5516 243.526 87.3182 243.577 87.1222 243.68C86.9262 243.783 86.7629 243.923 86.6322 244.1C86.5016 244.268 86.4036 244.459 86.3382 244.674C86.2729 244.889 86.2402 245.108 86.2402 245.332V249H84.5602V238.416H86.2402V243.218H86.2682C86.3336 243.078 86.4269 242.943 86.5482 242.812C86.6789 242.672 86.8282 242.551 86.9962 242.448C87.1642 242.336 87.3556 242.247 87.5702 242.182C87.7849 242.117 88.0182 242.084 88.2702 242.084ZM92.456 245.612C92.456 245.08 92.5493 244.599 92.736 244.17C92.932 243.731 93.1933 243.358 93.52 243.05C93.8467 242.742 94.234 242.504 94.682 242.336C95.13 242.168 95.606 242.084 96.11 242.084C96.614 242.084 97.09 242.168 97.538 242.336C97.986 242.504 98.3733 242.742 98.7 243.05C99.0267 243.358 99.2833 243.731 99.47 244.17C99.666 244.599 99.764 245.08 99.764 245.612C99.764 246.144 99.666 246.629 99.47 247.068C99.2833 247.507 99.0267 247.885 98.7 248.202C98.3733 248.51 97.986 248.753 97.538 248.93C97.09 249.107 96.614 249.196 96.11 249.196C95.606 249.196 95.13 249.107 94.682 248.93C94.234 248.753 93.8467 248.51 93.52 248.202C93.1933 247.885 92.932 247.507 92.736 247.068C92.5493 246.629 92.456 246.144 92.456 245.612ZM94.164 245.612C94.164 245.873 94.2013 246.135 94.276 246.396C94.36 246.657 94.4813 246.891 94.64 247.096C94.7987 247.301 94.9993 247.469 95.242 247.6C95.4847 247.731 95.774 247.796 96.11 247.796C96.446 247.796 96.7353 247.731 96.978 247.6C97.2207 247.469 97.4213 247.301 97.58 247.096C97.7387 246.891 97.8553 246.657 97.93 246.396C98.014 246.135 98.056 245.873 98.056 245.612C98.056 245.351 98.014 245.094 97.93 244.842C97.8553 244.581 97.7387 244.347 97.58 244.142C97.4213 243.937 97.2207 243.773 96.978 243.652C96.7353 243.521 96.446 243.456 96.11 243.456C95.774 243.456 95.4847 243.521 95.242 243.652C94.9993 243.773 94.7987 243.937 94.64 244.142C94.4813 244.347 94.36 244.581 94.276 244.842C94.2013 245.094 94.164 245.351 94.164 245.612ZM107.665 249H106.069V247.922H106.041C105.892 248.258 105.63 248.557 105.257 248.818C104.893 249.07 104.459 249.196 103.955 249.196C103.516 249.196 103.138 249.121 102.821 248.972C102.513 248.813 102.256 248.608 102.051 248.356C101.855 248.104 101.71 247.815 101.617 247.488C101.524 247.161 101.477 246.825 101.477 246.48V242.28H103.157V246.004C103.157 246.2 103.171 246.405 103.199 246.62C103.227 246.835 103.288 247.031 103.381 247.208C103.474 247.376 103.6 247.516 103.759 247.628C103.927 247.74 104.146 247.796 104.417 247.796C104.678 247.796 104.907 247.745 105.103 247.642C105.308 247.53 105.472 247.39 105.593 247.222C105.724 247.054 105.822 246.863 105.887 246.648C105.952 246.424 105.985 246.2 105.985 245.976V242.28H107.665V249ZM109.849 238.416H111.529V249H109.849V238.416ZM120.539 249H118.943V247.992H118.915C118.682 248.384 118.355 248.683 117.935 248.888C117.525 249.093 117.081 249.196 116.605 249.196C116.092 249.196 115.63 249.103 115.219 248.916C114.818 248.72 114.473 248.463 114.183 248.146C113.903 247.819 113.684 247.441 113.525 247.012C113.376 246.573 113.301 246.107 113.301 245.612C113.301 245.117 113.381 244.655 113.539 244.226C113.698 243.797 113.922 243.423 114.211 243.106C114.501 242.789 114.846 242.541 115.247 242.364C115.649 242.177 116.087 242.084 116.563 242.084C116.871 242.084 117.147 242.121 117.389 242.196C117.632 242.261 117.842 242.345 118.019 242.448C118.206 242.551 118.365 242.663 118.495 242.784C118.626 242.905 118.733 243.022 118.817 243.134H118.859V238.416H120.539V249ZM115.009 245.612C115.009 245.873 115.047 246.135 115.121 246.396C115.205 246.657 115.327 246.891 115.485 247.096C115.644 247.301 115.845 247.469 116.087 247.6C116.33 247.731 116.615 247.796 116.941 247.796C117.249 247.796 117.525 247.735 117.767 247.614C118.01 247.483 118.215 247.315 118.383 247.11C118.561 246.905 118.691 246.676 118.775 246.424C118.869 246.163 118.915 245.901 118.915 245.64C118.915 245.379 118.869 245.117 118.775 244.856C118.691 244.595 118.561 244.361 118.383 244.156C118.215 243.951 118.01 243.783 117.767 243.652C117.525 243.521 117.249 243.456 116.941 243.456C116.615 243.456 116.33 243.521 116.087 243.652C115.845 243.773 115.644 243.937 115.485 244.142C115.327 244.347 115.205 244.581 115.121 244.842C115.047 245.094 115.009 245.351 115.009 245.612ZM126.361 242.28H127.971V243.4H127.999C128.185 243.008 128.447 242.691 128.783 242.448C129.119 242.205 129.511 242.084 129.959 242.084C130.024 242.084 130.094 242.089 130.169 242.098C130.243 242.098 130.309 242.107 130.365 242.126V243.666C130.253 243.638 130.155 243.619 130.071 243.61C129.996 243.601 129.921 243.596 129.847 243.596C129.464 243.596 129.156 243.666 128.923 243.806C128.689 243.946 128.507 244.114 128.377 244.31C128.246 244.506 128.157 244.707 128.111 244.912C128.064 245.117 128.041 245.281 128.041 245.402V249H126.361V242.28ZM136.086 244.968C136.086 244.753 136.053 244.548 135.988 244.352C135.932 244.156 135.839 243.983 135.708 243.834C135.577 243.685 135.409 243.568 135.204 243.484C135.008 243.391 134.775 243.344 134.504 243.344C134 243.344 133.571 243.498 133.216 243.806C132.871 244.105 132.679 244.492 132.642 244.968H136.086ZM137.766 245.724C137.766 245.799 137.766 245.873 137.766 245.948C137.766 246.023 137.761 246.097 137.752 246.172H132.642C132.661 246.415 132.721 246.639 132.824 246.844C132.936 247.04 133.081 247.213 133.258 247.362C133.435 247.502 133.636 247.614 133.86 247.698C134.084 247.782 134.317 247.824 134.56 247.824C134.98 247.824 135.335 247.749 135.624 247.6C135.913 247.441 136.151 247.227 136.338 246.956L137.458 247.852C136.795 248.748 135.834 249.196 134.574 249.196C134.051 249.196 133.571 249.117 133.132 248.958C132.693 248.79 132.311 248.557 131.984 248.258C131.667 247.959 131.415 247.595 131.228 247.166C131.051 246.727 130.962 246.233 130.962 245.682C130.962 245.141 131.051 244.651 131.228 244.212C131.415 243.764 131.667 243.386 131.984 243.078C132.301 242.761 132.675 242.518 133.104 242.35C133.543 242.173 134.014 242.084 134.518 242.084C134.985 242.084 135.414 242.163 135.806 242.322C136.207 242.471 136.553 242.7 136.842 243.008C137.131 243.307 137.355 243.685 137.514 244.142C137.682 244.59 137.766 245.117 137.766 245.724ZM144.125 244.142C143.994 243.955 143.798 243.801 143.537 243.68C143.276 243.549 143.01 243.484 142.739 243.484C142.431 243.484 142.16 243.549 141.927 243.68C141.694 243.801 141.498 243.965 141.339 244.17C141.19 244.375 141.078 244.609 141.003 244.87C140.928 245.122 140.891 245.379 140.891 245.64C140.891 245.901 140.928 246.163 141.003 246.424C141.087 246.676 141.208 246.905 141.367 247.11C141.526 247.315 141.722 247.483 141.955 247.614C142.198 247.735 142.478 247.796 142.795 247.796C143.056 247.796 143.318 247.745 143.579 247.642C143.84 247.539 144.05 247.39 144.209 247.194L145.259 248.258C144.979 248.557 144.62 248.79 144.181 248.958C143.752 249.117 143.285 249.196 142.781 249.196C142.286 249.196 141.815 249.117 141.367 248.958C140.928 248.799 140.541 248.566 140.205 248.258C139.878 247.95 139.617 247.577 139.421 247.138C139.234 246.699 139.141 246.2 139.141 245.64C139.141 245.099 139.234 244.609 139.421 244.17C139.617 243.731 139.878 243.358 140.205 243.05C140.532 242.742 140.91 242.504 141.339 242.336C141.778 242.168 142.244 242.084 142.739 242.084C143.234 242.084 143.71 242.177 144.167 242.364C144.634 242.551 145.002 242.807 145.273 243.134L144.125 244.142ZM151.241 244.968C151.241 244.753 151.208 244.548 151.143 244.352C151.087 244.156 150.994 243.983 150.863 243.834C150.732 243.685 150.564 243.568 150.359 243.484C150.163 243.391 149.93 243.344 149.659 243.344C149.155 243.344 148.726 243.498 148.371 243.806C148.026 244.105 147.834 244.492 147.797 244.968H151.241ZM152.921 245.724C152.921 245.799 152.921 245.873 152.921 245.948C152.921 246.023 152.916 246.097 152.907 246.172H147.797C147.816 246.415 147.876 246.639 147.979 246.844C148.091 247.04 148.236 247.213 148.413 247.362C148.59 247.502 148.791 247.614 149.015 247.698C149.239 247.782 149.472 247.824 149.715 247.824C150.135 247.824 150.49 247.749 150.779 247.6C151.068 247.441 151.306 247.227 151.493 246.956L152.613 247.852C151.95 248.748 150.989 249.196 149.729 249.196C149.206 249.196 148.726 249.117 148.287 248.958C147.848 248.79 147.466 248.557 147.139 248.258C146.822 247.959 146.57 247.595 146.383 247.166C146.206 246.727 146.117 246.233 146.117 245.682C146.117 245.141 146.206 244.651 146.383 244.212C146.57 243.764 146.822 243.386 147.139 243.078C147.456 242.761 147.83 242.518 148.259 242.35C148.698 242.173 149.169 242.084 149.673 242.084C150.14 242.084 150.569 242.163 150.961 242.322C151.362 242.471 151.708 242.7 151.997 243.008C152.286 243.307 152.51 243.685 152.669 244.142C152.837 244.59 152.921 245.117 152.921 245.724ZM154.716 242.28H156.396V249H154.716V242.28ZM154.478 239.998C154.478 239.727 154.576 239.494 154.772 239.298C154.977 239.093 155.234 238.99 155.542 238.99C155.85 238.99 156.107 239.088 156.312 239.284C156.527 239.471 156.634 239.709 156.634 239.998C156.634 240.287 156.527 240.53 156.312 240.726C156.107 240.913 155.85 241.006 155.542 241.006C155.234 241.006 154.977 240.908 154.772 240.712C154.576 240.507 154.478 240.269 154.478 239.998ZM157.566 242.28H159.4L161.164 247.18H161.192L162.97 242.28H164.748L162.074 249H160.282L157.566 242.28ZM170.624 244.968C170.624 244.753 170.591 244.548 170.526 244.352C170.47 244.156 170.377 243.983 170.246 243.834C170.115 243.685 169.947 243.568 169.742 243.484C169.546 243.391 169.313 243.344 169.042 243.344C168.538 243.344 168.109 243.498 167.754 243.806C167.409 244.105 167.217 244.492 167.18 244.968H170.624ZM172.304 245.724C172.304 245.799 172.304 245.873 172.304 245.948C172.304 246.023 172.299 246.097 172.29 246.172H167.18C167.199 246.415 167.259 246.639 167.362 246.844C167.474 247.04 167.619 247.213 167.796 247.362C167.973 247.502 168.174 247.614 168.398 247.698C168.622 247.782 168.855 247.824 169.098 247.824C169.518 247.824 169.873 247.749 170.162 247.6C170.451 247.441 170.689 247.227 170.876 246.956L171.996 247.852C171.333 248.748 170.372 249.196 169.112 249.196C168.589 249.196 168.109 249.117 167.67 248.958C167.231 248.79 166.849 248.557 166.522 248.258C166.205 247.959 165.953 247.595 165.766 247.166C165.589 246.727 165.5 246.233 165.5 245.682C165.5 245.141 165.589 244.651 165.766 244.212C165.953 243.764 166.205 243.386 166.522 243.078C166.839 242.761 167.213 242.518 167.642 242.35C168.081 242.173 168.552 242.084 169.056 242.084C169.523 242.084 169.952 242.163 170.344 242.322C170.745 242.471 171.091 242.7 171.38 243.008C171.669 243.307 171.893 243.685 172.052 244.142C172.22 244.59 172.304 245.117 172.304 245.724ZM181.883 248.146H181.841C181.673 248.445 181.402 248.692 181.029 248.888C180.656 249.075 180.231 249.168 179.755 249.168C179.484 249.168 179.2 249.131 178.901 249.056C178.612 248.991 178.341 248.879 178.089 248.72C177.846 248.552 177.641 248.337 177.473 248.076C177.314 247.805 177.235 247.474 177.235 247.082C177.235 246.578 177.375 246.177 177.655 245.878C177.944 245.579 178.313 245.351 178.761 245.192C179.209 245.033 179.704 244.931 180.245 244.884C180.796 244.828 181.332 244.8 181.855 244.8V244.632C181.855 244.212 181.701 243.904 181.393 243.708C181.094 243.503 180.735 243.4 180.315 243.4C179.96 243.4 179.62 243.475 179.293 243.624C178.966 243.773 178.696 243.955 178.481 244.17L177.613 243.148C177.996 242.793 178.434 242.527 178.929 242.35C179.433 242.173 179.942 242.084 180.455 242.084C181.052 242.084 181.542 242.168 181.925 242.336C182.317 242.504 182.625 242.723 182.849 242.994C183.073 243.265 183.227 243.568 183.311 243.904C183.404 244.24 183.451 244.576 183.451 244.912V249H181.883V248.146ZM181.855 245.934H181.477C181.206 245.934 180.922 245.948 180.623 245.976C180.324 245.995 180.049 246.046 179.797 246.13C179.545 246.205 179.335 246.317 179.167 246.466C178.999 246.606 178.915 246.802 178.915 247.054C178.915 247.213 178.948 247.348 179.013 247.46C179.088 247.563 179.181 247.647 179.293 247.712C179.405 247.777 179.531 247.824 179.671 247.852C179.811 247.88 179.951 247.894 180.091 247.894C180.67 247.894 181.108 247.74 181.407 247.432C181.706 247.124 181.855 246.704 181.855 246.172V245.934ZM185.548 242.28H187.144V243.358H187.172C187.322 243.022 187.578 242.728 187.942 242.476C188.316 242.215 188.754 242.084 189.258 242.084C189.697 242.084 190.07 242.163 190.378 242.322C190.696 242.471 190.952 242.672 191.148 242.924C191.354 243.176 191.503 243.465 191.596 243.792C191.69 244.119 191.736 244.455 191.736 244.8V249H190.056V245.276C190.056 245.08 190.042 244.875 190.014 244.66C189.986 244.445 189.926 244.254 189.832 244.086C189.739 243.909 189.608 243.764 189.44 243.652C189.282 243.54 189.067 243.484 188.796 243.484C188.526 243.484 188.292 243.54 188.096 243.652C187.9 243.755 187.737 243.89 187.606 244.058C187.485 244.226 187.392 244.422 187.326 244.646C187.261 244.861 187.228 245.08 187.228 245.304V249H185.548V242.28ZM202.209 244.968C202.209 244.753 202.176 244.548 202.111 244.352C202.055 244.156 201.961 243.983 201.831 243.834C201.7 243.685 201.532 243.568 201.327 243.484C201.131 243.391 200.897 243.344 200.627 243.344C200.123 243.344 199.693 243.498 199.339 243.806C198.993 244.105 198.802 244.492 198.765 244.968H202.209ZM203.889 245.724C203.889 245.799 203.889 245.873 203.889 245.948C203.889 246.023 203.884 246.097 203.875 246.172H198.765C198.783 246.415 198.844 246.639 198.947 246.844C199.059 247.04 199.203 247.213 199.381 247.362C199.558 247.502 199.759 247.614 199.983 247.698C200.207 247.782 200.44 247.824 200.683 247.824C201.103 247.824 201.457 247.749 201.747 247.6C202.036 247.441 202.274 247.227 202.461 246.956L203.581 247.852C202.918 248.748 201.957 249.196 200.697 249.196C200.174 249.196 199.693 249.117 199.255 248.958C198.816 248.79 198.433 248.557 198.107 248.258C197.789 247.959 197.537 247.595 197.351 247.166C197.173 246.727 197.085 246.233 197.085 245.682C197.085 245.141 197.173 244.651 197.351 244.212C197.537 243.764 197.789 243.386 198.107 243.078C198.424 242.761 198.797 242.518 199.227 242.35C199.665 242.173 200.137 242.084 200.641 242.084C201.107 242.084 201.537 242.163 201.929 242.322C202.33 242.471 202.675 242.7 202.965 243.008C203.254 243.307 203.478 243.685 203.637 244.142C203.805 244.59 203.889 245.117 203.889 245.724ZM213.678 242.084C214.116 242.084 214.49 242.163 214.798 242.322C215.115 242.471 215.372 242.672 215.568 242.924C215.773 243.176 215.922 243.465 216.016 243.792C216.109 244.119 216.156 244.455 216.156 244.8V249H214.476V245.276C214.476 245.08 214.462 244.875 214.434 244.66C214.406 244.445 214.345 244.254 214.252 244.086C214.158 243.909 214.028 243.764 213.86 243.652C213.701 243.54 213.486 243.484 213.216 243.484C212.954 243.484 212.73 243.54 212.544 243.652C212.357 243.764 212.203 243.909 212.082 244.086C211.96 244.263 211.872 244.464 211.816 244.688C211.76 244.903 211.732 245.117 211.732 245.332V249H210.052V244.94C210.052 244.52 209.949 244.175 209.744 243.904C209.548 243.624 209.235 243.484 208.806 243.484C208.554 243.484 208.334 243.54 208.148 243.652C207.961 243.755 207.807 243.89 207.686 244.058C207.574 244.226 207.485 244.422 207.42 244.646C207.364 244.861 207.336 245.08 207.336 245.304V249H205.656V242.28H207.252V243.358H207.28C207.354 243.19 207.452 243.031 207.574 242.882C207.704 242.733 207.854 242.597 208.022 242.476C208.199 242.355 208.4 242.261 208.624 242.196C208.848 242.121 209.095 242.084 209.366 242.084C209.888 242.084 210.322 242.201 210.668 242.434C211.013 242.667 211.279 242.975 211.466 243.358C211.69 242.947 211.988 242.635 212.362 242.42C212.735 242.196 213.174 242.084 213.678 242.084ZM222.423 248.146H222.381C222.213 248.445 221.942 248.692 221.569 248.888C221.195 249.075 220.771 249.168 220.295 249.168C220.024 249.168 219.739 249.131 219.441 249.056C219.151 248.991 218.881 248.879 218.629 248.72C218.386 248.552 218.181 248.337 218.013 248.076C217.854 247.805 217.775 247.474 217.775 247.082C217.775 246.578 217.915 246.177 218.195 245.878C218.484 245.579 218.853 245.351 219.301 245.192C219.749 245.033 220.243 244.931 220.785 244.884C221.335 244.828 221.872 244.8 222.395 244.8V244.632C222.395 244.212 222.241 243.904 221.933 243.708C221.634 243.503 221.275 243.4 220.855 243.4C220.5 243.4 220.159 243.475 219.833 243.624C219.506 243.773 219.235 243.955 219.021 244.17L218.153 243.148C218.535 242.793 218.974 242.527 219.469 242.35C219.973 242.173 220.481 242.084 220.995 242.084C221.592 242.084 222.082 242.168 222.465 242.336C222.857 242.504 223.165 242.723 223.389 242.994C223.613 243.265 223.767 243.568 223.851 243.904C223.944 244.24 223.991 244.576 223.991 244.912V249H222.423V248.146ZM222.395 245.934H222.017C221.746 245.934 221.461 245.948 221.163 245.976C220.864 245.995 220.589 246.046 220.337 246.13C220.085 246.205 219.875 246.317 219.707 246.466C219.539 246.606 219.455 246.802 219.455 247.054C219.455 247.213 219.487 247.348 219.553 247.46C219.627 247.563 219.721 247.647 219.833 247.712C219.945 247.777 220.071 247.824 220.211 247.852C220.351 247.88 220.491 247.894 220.631 247.894C221.209 247.894 221.648 247.74 221.947 247.432C222.245 247.124 222.395 246.704 222.395 246.172V245.934ZM226.116 242.28H227.796V249H226.116V242.28ZM225.878 239.998C225.878 239.727 225.976 239.494 226.172 239.298C226.377 239.093 226.634 238.99 226.942 238.99C227.25 238.99 227.507 239.088 227.712 239.284C227.927 239.471 228.034 239.709 228.034 239.998C228.034 240.287 227.927 240.53 227.712 240.726C227.507 240.913 227.25 241.006 226.942 241.006C226.634 241.006 226.377 240.908 226.172 240.712C225.976 240.507 225.878 240.269 225.878 239.998ZM230.002 238.416H231.682V249H230.002V238.416ZM241.182 244.072C241.033 243.876 240.828 243.708 240.566 243.568C240.305 243.419 240.02 243.344 239.712 243.344C239.442 243.344 239.194 243.4 238.97 243.512C238.746 243.624 238.634 243.811 238.634 244.072C238.634 244.333 238.756 244.52 238.998 244.632C239.25 244.735 239.614 244.842 240.09 244.954C240.342 245.01 240.594 245.085 240.846 245.178C241.108 245.271 241.341 245.397 241.546 245.556C241.761 245.705 241.934 245.897 242.064 246.13C242.195 246.354 242.26 246.629 242.26 246.956C242.26 247.367 242.181 247.717 242.022 248.006C241.873 248.286 241.668 248.515 241.406 248.692C241.154 248.869 240.856 248.995 240.51 249.07C240.174 249.154 239.824 249.196 239.46 249.196C238.938 249.196 238.429 249.103 237.934 248.916C237.44 248.72 237.029 248.445 236.702 248.09L237.808 247.054C237.995 247.297 238.238 247.497 238.536 247.656C238.835 247.815 239.166 247.894 239.53 247.894C239.652 247.894 239.773 247.88 239.894 247.852C240.025 247.824 240.142 247.782 240.244 247.726C240.356 247.661 240.445 247.577 240.51 247.474C240.576 247.371 240.608 247.245 240.608 247.096C240.608 246.816 240.478 246.615 240.216 246.494C239.964 246.373 239.582 246.251 239.068 246.13C238.816 246.074 238.569 246.004 238.326 245.92C238.093 245.827 237.883 245.71 237.696 245.57C237.51 245.421 237.36 245.239 237.248 245.024C237.136 244.809 237.08 244.543 237.08 244.226C237.08 243.853 237.155 243.531 237.304 243.26C237.463 242.989 237.668 242.77 237.92 242.602C238.172 242.425 238.457 242.294 238.774 242.21C239.092 242.126 239.418 242.084 239.754 242.084C240.24 242.084 240.711 242.168 241.168 242.336C241.635 242.504 242.004 242.761 242.274 243.106L241.182 244.072ZM243.469 245.612C243.469 245.08 243.562 244.599 243.749 244.17C243.945 243.731 244.206 243.358 244.533 243.05C244.86 242.742 245.247 242.504 245.695 242.336C246.143 242.168 246.619 242.084 247.123 242.084C247.627 242.084 248.103 242.168 248.551 242.336C248.999 242.504 249.386 242.742 249.713 243.05C250.04 243.358 250.296 243.731 250.483 244.17C250.679 244.599 250.777 245.08 250.777 245.612C250.777 246.144 250.679 246.629 250.483 247.068C250.296 247.507 250.04 247.885 249.713 248.202C249.386 248.51 248.999 248.753 248.551 248.93C248.103 249.107 247.627 249.196 247.123 249.196C246.619 249.196 246.143 249.107 245.695 248.93C245.247 248.753 244.86 248.51 244.533 248.202C244.206 247.885 243.945 247.507 243.749 247.068C243.562 246.629 243.469 246.144 243.469 245.612ZM245.177 245.612C245.177 245.873 245.214 246.135 245.289 246.396C245.373 246.657 245.494 246.891 245.653 247.096C245.812 247.301 246.012 247.469 246.255 247.6C246.498 247.731 246.787 247.796 247.123 247.796C247.459 247.796 247.748 247.731 247.991 247.6C248.234 247.469 248.434 247.301 248.593 247.096C248.752 246.891 248.868 246.657 248.943 246.396C249.027 246.135 249.069 245.873 249.069 245.612C249.069 245.351 249.027 245.094 248.943 244.842C248.868 244.581 248.752 244.347 248.593 244.142C248.434 243.937 248.234 243.773 247.991 243.652C247.748 243.521 247.459 243.456 247.123 243.456C246.787 243.456 246.498 243.521 246.255 243.652C246.012 243.773 245.812 243.937 245.653 244.142C245.494 244.347 245.373 244.581 245.289 244.842C245.214 245.094 245.177 245.351 245.177 245.612ZM252.154 245.612C252.154 245.08 252.247 244.599 252.434 244.17C252.63 243.731 252.891 243.358 253.218 243.05C253.545 242.742 253.932 242.504 254.38 242.336C254.828 242.168 255.304 242.084 255.808 242.084C256.312 242.084 256.788 242.168 257.236 242.336C257.684 242.504 258.071 242.742 258.398 243.05C258.725 243.358 258.981 243.731 259.168 244.17C259.364 244.599 259.462 245.08 259.462 245.612C259.462 246.144 259.364 246.629 259.168 247.068C258.981 247.507 258.725 247.885 258.398 248.202C258.071 248.51 257.684 248.753 257.236 248.93C256.788 249.107 256.312 249.196 255.808 249.196C255.304 249.196 254.828 249.107 254.38 248.93C253.932 248.753 253.545 248.51 253.218 248.202C252.891 247.885 252.63 247.507 252.434 247.068C252.247 246.629 252.154 246.144 252.154 245.612ZM253.862 245.612C253.862 245.873 253.899 246.135 253.974 246.396C254.058 246.657 254.179 246.891 254.338 247.096C254.497 247.301 254.697 247.469 254.94 247.6C255.183 247.731 255.472 247.796 255.808 247.796C256.144 247.796 256.433 247.731 256.676 247.6C256.919 247.469 257.119 247.301 257.278 247.096C257.437 246.891 257.553 246.657 257.628 246.396C257.712 246.135 257.754 245.873 257.754 245.612C257.754 245.351 257.712 245.094 257.628 244.842C257.553 244.581 257.437 244.347 257.278 244.142C257.119 243.937 256.919 243.773 256.676 243.652C256.433 243.521 256.144 243.456 255.808 243.456C255.472 243.456 255.183 243.521 254.94 243.652C254.697 243.773 254.497 243.937 254.338 244.142C254.179 244.347 254.058 244.581 253.974 244.842C253.899 245.094 253.862 245.351 253.862 245.612ZM261.231 242.28H262.827V243.358H262.855C263.004 243.022 263.261 242.728 263.625 242.476C263.998 242.215 264.437 242.084 264.941 242.084C265.379 242.084 265.753 242.163 266.061 242.322C266.378 242.471 266.635 242.672 266.831 242.924C267.036 243.176 267.185 243.465 267.279 243.792C267.372 244.119 267.419 244.455 267.419 244.8V249H265.739V245.276C265.739 245.08 265.725 244.875 265.697 244.66C265.669 244.445 265.608 244.254 265.515 244.086C265.421 243.909 265.291 243.764 265.123 243.652C264.964 243.54 264.749 243.484 264.479 243.484C264.208 243.484 263.975 243.54 263.779 243.652C263.583 243.755 263.419 243.89 263.289 244.058C263.167 244.226 263.074 244.422 263.009 244.646C262.943 244.861 262.911 245.08 262.911 245.304V249H261.231V242.28ZM271.731 245.892H270.051V239.088H271.731V245.892ZM269.771 248.02C269.771 247.721 269.879 247.465 270.093 247.25C270.317 247.035 270.583 246.928 270.891 246.928C271.19 246.928 271.451 247.031 271.675 247.236C271.899 247.441 272.011 247.693 272.011 247.992C272.011 248.291 271.899 248.547 271.675 248.762C271.461 248.977 271.199 249.084 270.891 249.084C270.742 249.084 270.597 249.056 270.457 249C270.327 248.944 270.21 248.869 270.107 248.776C270.005 248.683 269.921 248.571 269.855 248.44C269.799 248.309 269.771 248.169 269.771 248.02Z" fill="white"/>
<path d="M40.848 44L37.176 37.256H35.784V44H31.752V27.008H38.232C39.048 27.008 39.84 27.096 40.608 27.272C41.392 27.432 42.088 27.712 42.696 28.112C43.32 28.512 43.816 29.04 44.184 29.696C44.552 30.352 44.736 31.168 44.736 32.144C44.736 33.296 44.424 34.264 43.8 35.048C43.176 35.832 42.312 36.392 41.208 36.728L45.648 44H40.848ZM40.68 32.216C40.68 31.816 40.592 31.496 40.416 31.256C40.256 31 40.04 30.808 39.768 30.68C39.512 30.536 39.216 30.44 38.88 30.392C38.56 30.344 38.248 30.32 37.944 30.32H35.76V34.28H37.704C38.04 34.28 38.384 34.256 38.736 34.208C39.088 34.144 39.408 34.04 39.696 33.896C39.984 33.752 40.216 33.544 40.392 33.272C40.584 33 40.68 32.648 40.68 32.216ZM55.2808 36.656C55.2808 36.032 55.0808 35.496 54.6808 35.048C54.2968 34.6 53.7128 34.376 52.9288 34.376C52.5448 34.376 52.1928 34.44 51.8728 34.568C51.5528 34.68 51.2728 34.84 51.0328 35.048C50.7928 35.256 50.6008 35.504 50.4568 35.792C50.3128 36.064 50.2328 36.352 50.2168 36.656H55.2808ZM58.9048 38.168C58.9048 38.328 58.9048 38.488 58.9048 38.648C58.9048 38.808 58.8968 38.96 58.8808 39.104H50.2168C50.2488 39.44 50.3448 39.744 50.5048 40.016C50.6808 40.288 50.8968 40.528 51.1528 40.736C51.4248 40.928 51.7208 41.08 52.0408 41.192C52.3768 41.304 52.7208 41.36 53.0728 41.36C53.6968 41.36 54.2248 41.248 54.6568 41.024C55.0888 40.784 55.4408 40.48 55.7128 40.112L58.4488 41.84C57.8888 42.656 57.1448 43.288 56.2168 43.736C55.3048 44.168 54.2408 44.384 53.0248 44.384C52.1288 44.384 51.2808 44.248 50.4808 43.976C49.6808 43.688 48.9768 43.28 48.3688 42.752C47.7768 42.208 47.3048 41.544 46.9528 40.76C46.6168 39.976 46.4488 39.08 46.4488 38.072C46.4488 37.096 46.6168 36.216 46.9528 35.432C47.2888 34.632 47.7448 33.96 48.3208 33.416C48.8968 32.856 49.5768 32.424 50.3608 32.12C51.1448 31.816 51.9928 31.664 52.9048 31.664C53.7848 31.664 54.5928 31.816 55.3288 32.12C56.0648 32.408 56.6968 32.832 57.2248 33.392C57.7528 33.952 58.1608 34.632 58.4488 35.432C58.7528 36.232 58.9048 37.144 58.9048 38.168ZM69.4577 35.912C69.2337 35.624 68.9297 35.392 68.5457 35.216C68.1617 35.04 67.7697 34.952 67.3697 34.952C66.9537 34.952 66.5777 35.04 66.2417 35.216C65.9057 35.376 65.6177 35.6 65.3777 35.888C65.1377 36.16 64.9457 36.48 64.8017 36.848C64.6737 37.216 64.6097 37.608 64.6097 38.024C64.6097 38.44 64.6737 38.832 64.8017 39.2C64.9297 39.568 65.1137 39.896 65.3537 40.184C65.6097 40.456 65.9057 40.672 66.2417 40.832C66.5937 40.992 66.9857 41.072 67.4177 41.072C67.8177 41.072 68.2097 41 68.5937 40.856C68.9937 40.696 69.3137 40.472 69.5537 40.184L71.7377 42.848C71.2417 43.328 70.6017 43.704 69.8177 43.976C69.0337 44.248 68.2017 44.384 67.3217 44.384C66.3777 44.384 65.4977 44.24 64.6817 43.952C63.8657 43.664 63.1537 43.248 62.5457 42.704C61.9537 42.144 61.4817 41.472 61.1297 40.688C60.7937 39.904 60.6257 39.016 60.6257 38.024C60.6257 37.048 60.7937 36.168 61.1297 35.384C61.4817 34.6 61.9537 33.936 62.5457 33.392C63.1537 32.832 63.8657 32.408 64.6817 32.12C65.4977 31.816 66.3697 31.664 67.2977 31.664C67.7297 31.664 68.1537 31.704 68.5697 31.784C69.0017 31.864 69.4097 31.976 69.7937 32.12C70.1937 32.248 70.5537 32.416 70.8737 32.624C71.2097 32.816 71.4977 33.032 71.7377 33.272L69.4577 35.912ZM81.408 36.656C81.408 36.032 81.208 35.496 80.808 35.048C80.424 34.6 79.84 34.376 79.056 34.376C78.672 34.376 78.32 34.44 78 34.568C77.68 34.68 77.4 34.84 77.16 35.048C76.92 35.256 76.728 35.504 76.584 35.792C76.44 36.064 76.36 36.352 76.344 36.656H81.408ZM85.032 38.168C85.032 38.328 85.032 38.488 85.032 38.648C85.032 38.808 85.024 38.96 85.008 39.104H76.344C76.376 39.44 76.472 39.744 76.632 40.016C76.808 40.288 77.024 40.528 77.28 40.736C77.552 40.928 77.848 41.08 78.168 41.192C78.504 41.304 78.848 41.36 79.2 41.36C79.824 41.36 80.352 41.248 80.784 41.024C81.216 40.784 81.568 40.48 81.84 40.112L84.576 41.84C84.016 42.656 83.272 43.288 82.344 43.736C81.432 44.168 80.368 44.384 79.152 44.384C78.256 44.384 77.408 44.248 76.608 43.976C75.808 43.688 75.104 43.28 74.496 42.752C73.904 42.208 73.432 41.544 73.08 40.76C72.744 39.976 72.576 39.08 72.576 38.072C72.576 37.096 72.744 36.216 73.08 35.432C73.416 34.632 73.872 33.96 74.448 33.416C75.024 32.856 75.704 32.424 76.488 32.12C77.272 31.816 78.12 31.664 79.032 31.664C79.912 31.664 80.72 31.816 81.456 32.12C82.192 32.408 82.824 32.832 83.352 33.392C83.88 33.952 84.288 34.632 84.576 35.432C84.88 36.232 85.032 37.144 85.032 38.168ZM91.6249 28.232C91.6249 28.536 91.5609 28.824 91.4329 29.096C91.3209 29.352 91.1609 29.576 90.9529 29.768C90.7609 29.96 90.5209 30.112 90.2329 30.224C89.9609 30.336 89.6729 30.392 89.3689 30.392C88.7289 30.392 88.1929 30.184 87.7609 29.768C87.3289 29.336 87.1129 28.824 87.1129 28.232C87.1129 27.944 87.1689 27.672 87.2809 27.416C87.3929 27.144 87.5529 26.912 87.7609 26.72C87.9689 26.528 88.2089 26.376 88.4809 26.264C88.7529 26.136 89.0489 26.072 89.3689 26.072C89.6729 26.072 89.9609 26.128 90.2329 26.24C90.5209 26.352 90.7609 26.504 90.9529 26.696C91.1609 26.888 91.3209 27.12 91.4329 27.392C91.5609 27.648 91.6249 27.928 91.6249 28.232ZM87.4009 44V32.048H91.3369V44H87.4009ZM101.726 44H97.4784L92.7744 32.048H97.1184L99.6384 39.8H99.7104L102.23 32.048H106.43L101.726 44ZM116.064 36.656C116.064 36.032 115.864 35.496 115.464 35.048C115.08 34.6 114.496 34.376 113.712 34.376C113.328 34.376 112.976 34.44 112.656 34.568C112.336 34.68 112.056 34.84 111.816 35.048C111.576 35.256 111.384 35.504 111.24 35.792C111.096 36.064 111.016 36.352 111 36.656H116.064ZM119.688 38.168C119.688 38.328 119.688 38.488 119.688 38.648C119.688 38.808 119.68 38.96 119.664 39.104H111C111.032 39.44 111.128 39.744 111.288 40.016C111.464 40.288 111.68 40.528 111.936 40.736C112.208 40.928 112.504 41.08 112.824 41.192C113.16 41.304 113.504 41.36 113.856 41.36C114.48 41.36 115.008 41.248 115.44 41.024C115.872 40.784 116.224 40.48 116.496 40.112L119.232 41.84C118.672 42.656 117.928 43.288 117 43.736C116.088 44.168 115.024 44.384 113.808 44.384C112.912 44.384 112.064 44.248 111.264 43.976C110.464 43.688 109.76 43.28 109.152 42.752C108.56 42.208 108.088 41.544 107.736 40.76C107.4 39.976 107.232 39.08 107.232 38.072C107.232 37.096 107.4 36.216 107.736 35.432C108.072 34.632 108.528 33.96 109.104 33.416C109.68 32.856 110.36 32.424 111.144 32.12C111.928 31.816 112.776 31.664 113.688 31.664C114.568 31.664 115.376 31.816 116.112 32.12C116.848 32.408 117.48 32.832 118.008 33.392C118.536 33.952 118.944 34.632 119.232 35.432C119.536 36.232 119.688 37.144 119.688 38.168ZM146.224 39.056C146.224 39.984 146.032 40.792 145.648 41.48C145.28 42.152 144.792 42.712 144.184 43.16C143.576 43.592 142.888 43.912 142.12 44.12C141.368 44.344 140.6 44.456 139.816 44.456C139.048 44.456 138.296 44.368 137.56 44.192C136.84 44.016 136.176 43.752 135.568 43.4C134.976 43.032 134.456 42.568 134.008 42.008C133.56 41.432 133.224 40.744 133 39.944L136.744 38.96C136.904 39.52 137.232 40.016 137.728 40.448C138.224 40.864 138.856 41.072 139.624 41.072C139.912 41.072 140.2 41.032 140.488 40.952C140.792 40.872 141.056 40.752 141.28 40.592C141.52 40.416 141.712 40.192 141.856 39.92C142.016 39.648 142.096 39.312 142.096 38.912C142.096 38.48 141.992 38.12 141.784 37.832C141.592 37.544 141.328 37.32 140.992 37.16C140.672 36.984 140.304 36.864 139.888 36.8C139.472 36.72 139.056 36.68 138.64 36.68H137.56V33.728H138.736C139.12 33.728 139.488 33.704 139.84 33.656C140.192 33.592 140.504 33.488 140.776 33.344C141.064 33.184 141.288 32.976 141.448 32.72C141.624 32.464 141.712 32.128 141.712 31.712C141.712 31.104 141.496 30.64 141.064 30.32C140.632 30 140.136 29.84 139.576 29.84C139 29.84 138.496 30.016 138.064 30.368C137.648 30.704 137.376 31.16 137.248 31.736L133.504 30.872C133.712 30.152 134.024 29.528 134.44 29C134.856 28.456 135.344 28.008 135.904 27.656C136.48 27.288 137.104 27.016 137.776 26.84C138.448 26.648 139.136 26.552 139.84 26.552C140.592 26.552 141.32 26.648 142.024 26.84C142.744 27.032 143.384 27.328 143.944 27.728C144.504 28.128 144.952 28.632 145.288 29.24C145.64 29.832 145.816 30.536 145.816 31.352C145.816 32.296 145.544 33.096 145 33.752C144.472 34.392 143.792 34.824 142.96 35.048V35.12C143.44 35.232 143.88 35.416 144.28 35.672C144.68 35.912 145.024 36.208 145.312 36.56C145.6 36.896 145.824 37.28 145.984 37.712C146.144 38.128 146.224 38.576 146.224 39.056ZM159.316 35V39.56C159.316 40.12 159.42 40.544 159.628 40.832C159.852 41.104 160.244 41.24 160.804 41.24C160.996 41.24 161.196 41.224 161.404 41.192C161.628 41.16 161.812 41.112 161.956 41.048L162.004 43.928C161.732 44.024 161.388 44.104 160.972 44.168C160.556 44.248 160.14 44.288 159.724 44.288C158.924 44.288 158.252 44.192 157.708 44C157.164 43.792 156.724 43.504 156.388 43.136C156.068 42.752 155.836 42.304 155.692 41.792C155.548 41.264 155.476 40.68 155.476 40.04V35H153.556V32.048H155.452V28.904H159.316V32.048H162.124V35H159.316ZM170.91 38.792H170.406C169.974 38.792 169.534 38.816 169.086 38.864C168.654 38.896 168.262 38.968 167.91 39.08C167.574 39.192 167.294 39.36 167.07 39.584C166.846 39.792 166.734 40.072 166.734 40.424C166.734 40.648 166.782 40.84 166.878 41C166.99 41.16 167.126 41.288 167.286 41.384C167.446 41.48 167.63 41.552 167.838 41.6C168.046 41.632 168.246 41.648 168.438 41.648C169.238 41.648 169.846 41.432 170.262 41C170.694 40.552 170.91 39.952 170.91 39.2V38.792ZM163.686 33.68C164.39 33.008 165.206 32.504 166.134 32.168C167.078 31.832 168.038 31.664 169.014 31.664C170.022 31.664 170.87 31.792 171.558 32.048C172.262 32.288 172.83 32.672 173.262 33.2C173.694 33.712 174.006 34.368 174.198 35.168C174.406 35.952 174.51 36.888 174.51 37.976V44H170.91V42.728H170.838C170.534 43.224 170.07 43.608 169.446 43.88C168.838 44.152 168.174 44.288 167.454 44.288C166.974 44.288 166.478 44.224 165.966 44.096C165.454 43.968 164.982 43.76 164.55 43.472C164.134 43.184 163.79 42.8 163.518 42.32C163.246 41.84 163.11 41.248 163.11 40.544C163.11 39.68 163.342 38.984 163.806 38.456C164.286 37.928 164.894 37.52 165.63 37.232C166.382 36.944 167.214 36.752 168.126 36.656C169.038 36.56 169.926 36.512 170.79 36.512V36.32C170.79 35.728 170.582 35.296 170.166 35.024C169.75 34.736 169.238 34.592 168.63 34.592C168.07 34.592 167.526 34.712 166.998 34.952C166.486 35.192 166.046 35.48 165.678 35.816L163.686 33.68ZM185.488 44L182.92 40.328L180.28 44H175.72L180.496 37.736L176.176 32.048H180.76L182.992 35.24L185.248 32.048H189.688L185.392 37.736L190.12 44H185.488ZM201.61 35V39.56C201.61 40.12 201.714 40.544 201.922 40.832C202.146 41.104 202.538 41.24 203.098 41.24C203.29 41.24 203.49 41.224 203.698 41.192C203.922 41.16 204.106 41.112 204.25 41.048L204.298 43.928C204.026 44.024 203.682 44.104 203.266 44.168C202.85 44.248 202.434 44.288 202.018 44.288C201.218 44.288 200.546 44.192 200.002 44C199.458 43.792 199.018 43.504 198.682 43.136C198.362 42.752 198.13 42.304 197.986 41.792C197.842 41.264 197.77 40.68 197.77 40.04V35H195.85V32.048H197.746V28.904H201.61V32.048H204.418V35H201.61ZM210.419 28.232C210.419 28.536 210.355 28.824 210.227 29.096C210.115 29.352 209.955 29.576 209.747 29.768C209.555 29.96 209.315 30.112 209.027 30.224C208.755 30.336 208.467 30.392 208.163 30.392C207.523 30.392 206.987 30.184 206.555 29.768C206.123 29.336 205.907 28.824 205.907 28.232C205.907 27.944 205.963 27.672 206.075 27.416C206.187 27.144 206.347 26.912 206.555 26.72C206.763 26.528 207.003 26.376 207.275 26.264C207.547 26.136 207.843 26.072 208.163 26.072C208.467 26.072 208.755 26.128 209.027 26.24C209.315 26.352 209.555 26.504 209.747 26.696C209.955 26.888 210.115 27.12 210.227 27.392C210.355 27.648 210.419 27.928 210.419 28.232ZM206.195 44V32.048H210.131V44H206.195ZM226.425 37.976C226.425 38.808 226.297 39.608 226.041 40.376C225.785 41.144 225.409 41.824 224.913 42.416C224.433 42.992 223.841 43.456 223.137 43.808C222.433 44.16 221.633 44.336 220.737 44.336C220.001 44.336 219.305 44.192 218.649 43.904C217.993 43.6 217.481 43.192 217.113 42.68H217.065V49.76H213.129V32.048H216.873V33.512H216.945C217.313 33.032 217.817 32.616 218.457 32.264C219.113 31.896 219.881 31.712 220.761 31.712C221.625 31.712 222.409 31.88 223.113 32.216C223.817 32.552 224.409 33.008 224.889 33.584C225.385 34.16 225.761 34.832 226.017 35.6C226.289 36.352 226.425 37.144 226.425 37.976ZM222.609 37.976C222.609 37.592 222.545 37.216 222.417 36.848C222.305 36.48 222.129 36.16 221.889 35.888C221.665 35.6 221.377 35.368 221.025 35.192C220.673 35.016 220.265 34.928 219.801 34.928C219.353 34.928 218.953 35.016 218.601 35.192C218.249 35.368 217.945 35.6 217.689 35.888C217.449 36.176 217.257 36.504 217.113 36.872C216.985 37.24 216.921 37.616 216.921 38C216.921 38.384 216.985 38.76 217.113 39.128C217.257 39.496 217.449 39.824 217.689 40.112C217.945 40.4 218.249 40.632 218.601 40.808C218.953 40.984 219.353 41.072 219.801 41.072C220.265 41.072 220.673 40.984 221.025 40.808C221.377 40.632 221.665 40.4 221.889 40.112C222.129 39.824 222.305 39.496 222.417 39.128C222.545 38.744 222.609 38.36 222.609 37.976ZM235.814 35.576C235.494 35.272 235.118 35.016 234.686 34.808C234.254 34.6 233.798 34.496 233.318 34.496C232.95 34.496 232.606 34.568 232.286 34.712C231.982 34.856 231.83 35.104 231.83 35.456C231.83 35.792 231.998 36.032 232.334 36.176C232.686 36.32 233.246 36.48 234.014 36.656C234.462 36.752 234.91 36.888 235.358 37.064C235.822 37.24 236.238 37.472 236.606 37.76C236.974 38.048 237.27 38.4 237.494 38.816C237.718 39.232 237.83 39.728 237.83 40.304C237.83 41.056 237.678 41.696 237.374 42.224C237.07 42.736 236.67 43.152 236.174 43.472C235.694 43.792 235.15 44.024 234.542 44.168C233.934 44.312 233.326 44.384 232.718 44.384C231.742 44.384 230.782 44.232 229.838 43.928C228.91 43.608 228.134 43.144 227.51 42.536L229.718 40.208C230.07 40.592 230.502 40.912 231.014 41.168C231.526 41.424 232.07 41.552 232.646 41.552C232.966 41.552 233.278 41.48 233.582 41.336C233.902 41.176 234.062 40.904 234.062 40.52C234.062 40.152 233.87 39.88 233.486 39.704C233.102 39.528 232.502 39.344 231.686 39.152C231.27 39.056 230.854 38.928 230.438 38.768C230.022 38.608 229.646 38.392 229.31 38.12C228.99 37.848 228.726 37.512 228.518 37.112C228.31 36.712 228.206 36.232 228.206 35.672C228.206 34.952 228.358 34.344 228.662 33.848C228.966 33.336 229.358 32.92 229.838 32.6C230.318 32.28 230.846 32.048 231.422 31.904C232.014 31.744 232.598 31.664 233.174 31.664C234.07 31.664 234.942 31.808 235.79 32.096C236.654 32.368 237.382 32.784 237.974 33.344L235.814 35.576ZM250.135 35V39.56C250.135 40.12 250.239 40.544 250.447 40.832C250.671 41.104 251.063 41.24 251.623 41.24C251.815 41.24 252.015 41.224 252.223 41.192C252.447 41.16 252.631 41.112 252.775 41.048L252.823 43.928C252.551 44.024 252.207 44.104 251.791 44.168C251.375 44.248 250.959 44.288 250.543 44.288C249.743 44.288 249.071 44.192 248.527 44C247.983 43.792 247.543 43.504 247.207 43.136C246.887 42.752 246.655 42.304 246.511 41.792C246.367 41.264 246.295 40.68 246.295 40.04V35H244.375V32.048H246.271V28.904H250.135V32.048H252.943V35H250.135ZM267.344 37.976C267.344 38.952 267.168 39.84 266.816 40.64C266.464 41.424 265.984 42.096 265.376 42.656C264.768 43.2 264.064 43.624 263.264 43.928C262.464 44.232 261.608 44.384 260.696 44.384C259.8 44.384 258.944 44.232 258.128 43.928C257.328 43.624 256.624 43.2 256.016 42.656C255.424 42.096 254.952 41.424 254.6 40.64C254.248 39.84 254.072 38.952 254.072 37.976C254.072 37 254.248 36.12 254.6 35.336C254.952 34.552 255.424 33.888 256.016 33.344C256.624 32.8 257.328 32.384 258.128 32.096C258.944 31.808 259.8 31.664 260.696 31.664C261.608 31.664 262.464 31.808 263.264 32.096C264.064 32.384 264.768 32.8 265.376 33.344C265.984 33.888 266.464 34.552 266.816 35.336C267.168 36.12 267.344 37 267.344 37.976ZM263.552 37.976C263.552 37.592 263.488 37.216 263.36 36.848C263.232 36.48 263.048 36.16 262.808 35.888C262.568 35.6 262.272 35.368 261.92 35.192C261.568 35.016 261.16 34.928 260.696 34.928C260.232 34.928 259.824 35.016 259.472 35.192C259.12 35.368 258.824 35.6 258.584 35.888C258.36 36.16 258.184 36.48 258.056 36.848C257.944 37.216 257.888 37.592 257.888 37.976C257.888 38.36 257.944 38.736 258.056 39.104C258.184 39.472 258.368 39.808 258.608 40.112C258.848 40.4 259.144 40.632 259.496 40.808C259.848 40.984 260.256 41.072 260.72 41.072C261.184 41.072 261.592 40.984 261.944 40.808C262.296 40.632 262.592 40.4 262.832 40.112C263.072 39.808 263.248 39.472 263.36 39.104C263.488 38.736 263.552 38.36 263.552 37.976ZM38.568 63.576C38.248 63.272 37.872 63.016 37.44 62.808C37.008 62.6 36.552 62.496 36.072 62.496C35.704 62.496 35.36 62.568 35.04 62.712C34.736 62.856 34.584 63.104 34.584 63.456C34.584 63.792 34.752 64.032 35.088 64.176C35.44 64.32 36 64.48 36.768 64.656C37.216 64.752 37.664 64.888 38.112 65.064C38.576 65.24 38.992 65.472 39.36 65.76C39.728 66.048 40.024 66.4 40.248 66.816C40.472 67.232 40.584 67.728 40.584 68.304C40.584 69.056 40.432 69.696 40.128 70.224C39.824 70.736 39.424 71.152 38.928 71.472C38.448 71.792 37.904 72.024 37.296 72.168C36.688 72.312 36.08 72.384 35.472 72.384C34.496 72.384 33.536 72.232 32.592 71.928C31.664 71.608 30.888 71.144 30.264 70.536L32.472 68.208C32.824 68.592 33.256 68.912 33.768 69.168C34.28 69.424 34.824 69.552 35.4 69.552C35.72 69.552 36.032 69.48 36.336 69.336C36.656 69.176 36.816 68.904 36.816 68.52C36.816 68.152 36.624 67.88 36.24 67.704C35.856 67.528 35.256 67.344 34.44 67.152C34.024 67.056 33.608 66.928 33.192 66.768C32.776 66.608 32.4 66.392 32.064 66.12C31.744 65.848 31.48 65.512 31.272 65.112C31.064 64.712 30.96 64.232 30.96 63.672C30.96 62.952 31.112 62.344 31.416 61.848C31.72 61.336 32.112 60.92 32.592 60.6C33.072 60.28 33.6 60.048 34.176 59.904C34.768 59.744 35.352 59.664 35.928 59.664C36.824 59.664 37.696 59.808 38.544 60.096C39.408 60.368 40.136 60.784 40.728 61.344L38.568 63.576ZM47.0083 63V67.56C47.0083 68.12 47.1123 68.544 47.3203 68.832C47.5443 69.104 47.9363 69.24 48.4963 69.24C48.6883 69.24 48.8883 69.224 49.0963 69.192C49.3203 69.16 49.5043 69.112 49.6483 69.048L49.6963 71.928C49.4243 72.024 49.0803 72.104 48.6643 72.168C48.2483 72.248 47.8323 72.288 47.4163 72.288C46.6163 72.288 45.9443 72.192 45.4003 72C44.8563 71.792 44.4163 71.504 44.0803 71.136C43.7603 70.752 43.5283 70.304 43.3843 69.792C43.2403 69.264 43.1683 68.68 43.1683 68.04V63H41.2483V60.048H43.1443V56.904H47.0083V60.048H49.8163V63H47.0083ZM58.602 66.792H58.098C57.666 66.792 57.226 66.816 56.778 66.864C56.346 66.896 55.954 66.968 55.602 67.08C55.266 67.192 54.986 67.36 54.762 67.584C54.538 67.792 54.426 68.072 54.426 68.424C54.426 68.648 54.474 68.84 54.57 69C54.682 69.16 54.818 69.288 54.978 69.384C55.138 69.48 55.322 69.552 55.53 69.6C55.738 69.632 55.938 69.648 56.13 69.648C56.93 69.648 57.538 69.432 57.954 69C58.386 68.552 58.602 67.952 58.602 67.2V66.792ZM51.378 61.68C52.082 61.008 52.898 60.504 53.826 60.168C54.77 59.832 55.73 59.664 56.706 59.664C57.714 59.664 58.562 59.792 59.25 60.048C59.954 60.288 60.522 60.672 60.954 61.2C61.386 61.712 61.698 62.368 61.89 63.168C62.098 63.952 62.202 64.888 62.202 65.976V72H58.602V70.728H58.53C58.226 71.224 57.762 71.608 57.138 71.88C56.53 72.152 55.866 72.288 55.146 72.288C54.666 72.288 54.17 72.224 53.658 72.096C53.146 71.968 52.674 71.76 52.242 71.472C51.826 71.184 51.482 70.8 51.21 70.32C50.938 69.84 50.802 69.248 50.802 68.544C50.802 67.68 51.034 66.984 51.498 66.456C51.978 65.928 52.586 65.52 53.322 65.232C54.074 64.944 54.906 64.752 55.818 64.656C56.73 64.56 57.618 64.512 58.482 64.512V64.32C58.482 63.728 58.274 63.296 57.858 63.024C57.442 62.736 56.93 62.592 56.322 62.592C55.762 62.592 55.218 62.712 54.69 62.952C54.178 63.192 53.738 63.48 53.37 63.816L51.378 61.68ZM72.7717 63.264C72.5957 63.216 72.4197 63.184 72.2437 63.168C72.0837 63.152 71.9237 63.144 71.7638 63.144C71.2357 63.144 70.7877 63.24 70.4197 63.432C70.0677 63.624 69.7797 63.856 69.5557 64.128C69.3477 64.4 69.1957 64.696 69.0997 65.016C69.0037 65.336 68.9557 65.616 68.9557 65.856V72H65.0197V60.048H68.8117V61.776H68.8597C69.1637 61.168 69.5957 60.672 70.1558 60.288C70.7157 59.904 71.3637 59.712 72.0998 59.712C72.2597 59.712 72.4117 59.72 72.5557 59.736C72.7157 59.752 72.8437 59.776 72.9397 59.808L72.7717 63.264ZM78.4061 63V67.56C78.4061 68.12 78.5101 68.544 78.7181 68.832C78.9421 69.104 79.3341 69.24 79.8941 69.24C80.0861 69.24 80.2861 69.224 80.4941 69.192C80.7181 69.16 80.9021 69.112 81.0461 69.048L81.0941 71.928C80.8221 72.024 80.4781 72.104 80.0621 72.168C79.6461 72.248 79.2301 72.288 78.8141 72.288C78.0141 72.288 77.3421 72.192 76.7981 72C76.2541 71.792 75.8141 71.504 75.4781 71.136C75.1581 70.752 74.9261 70.304 74.7821 69.792C74.6381 69.264 74.5661 68.68 74.5661 68.04V63H72.6461V60.048H74.5421V56.904H78.4061V60.048H81.2141V63H78.4061ZM101.496 65.976C101.496 66.952 101.32 67.84 100.968 68.64C100.616 69.424 100.136 70.096 99.5278 70.656C98.9198 71.2 98.2158 71.624 97.4158 71.928C96.6158 72.232 95.7598 72.384 94.8478 72.384C93.9518 72.384 93.0958 72.232 92.2798 71.928C91.4798 71.624 90.7758 71.2 90.1678 70.656C89.5758 70.096 89.1038 69.424 88.7518 68.64C88.3998 67.84 88.2238 66.952 88.2238 65.976C88.2238 65 88.3998 64.12 88.7518 63.336C89.1038 62.552 89.5758 61.888 90.1678 61.344C90.7758 60.8 91.4798 60.384 92.2798 60.096C93.0958 59.808 93.9518 59.664 94.8478 59.664C95.7598 59.664 96.6158 59.808 97.4158 60.096C98.2158 60.384 98.9198 60.8 99.5278 61.344C100.136 61.888 100.616 62.552 100.968 63.336C101.32 64.12 101.496 65 101.496 65.976ZM97.7038 65.976C97.7038 65.592 97.6398 65.216 97.5118 64.848C97.3838 64.48 97.1998 64.16 96.9598 63.888C96.7198 63.6 96.4238 63.368 96.0718 63.192C95.7198 63.016 95.3118 62.928 94.8478 62.928C94.3838 62.928 93.9758 63.016 93.6238 63.192C93.2718 63.368 92.9758 63.6 92.7358 63.888C92.5118 64.16 92.3358 64.48 92.2078 64.848C92.0958 65.216 92.0398 65.592 92.0398 65.976C92.0398 66.36 92.0958 66.736 92.2078 67.104C92.3358 67.472 92.5198 67.808 92.7598 68.112C92.9998 68.4 93.2958 68.632 93.6478 68.808C93.9998 68.984 94.4078 69.072 94.8718 69.072C95.3358 69.072 95.7438 68.984 96.0958 68.808C96.4478 68.632 96.7438 68.4 96.9838 68.112C97.2238 67.808 97.3998 67.472 97.5118 67.104C97.6398 66.736 97.7038 66.36 97.7038 65.976ZM117.164 65.976C117.164 66.808 117.036 67.608 116.78 68.376C116.524 69.144 116.148 69.824 115.652 70.416C115.172 70.992 114.58 71.456 113.876 71.808C113.172 72.16 112.372 72.336 111.476 72.336C110.74 72.336 110.044 72.192 109.388 71.904C108.732 71.6 108.22 71.192 107.852 70.68H107.804V77.76H103.868V60.048H107.612V61.512H107.684C108.052 61.032 108.556 60.616 109.196 60.264C109.852 59.896 110.62 59.712 111.5 59.712C112.364 59.712 113.148 59.88 113.852 60.216C114.556 60.552 115.148 61.008 115.628 61.584C116.124 62.16 116.5 62.832 116.756 63.6C117.028 64.352 117.164 65.144 117.164 65.976ZM113.348 65.976C113.348 65.592 113.284 65.216 113.156 64.848C113.044 64.48 112.868 64.16 112.628 63.888C112.404 63.6 112.116 63.368 111.764 63.192C111.412 63.016 111.004 62.928 110.54 62.928C110.092 62.928 109.692 63.016 109.34 63.192C108.988 63.368 108.684 63.6 108.428 63.888C108.188 64.176 107.996 64.504 107.852 64.872C107.724 65.24 107.66 65.616 107.66 66C107.66 66.384 107.724 66.76 107.852 67.128C107.996 67.496 108.188 67.824 108.428 68.112C108.684 68.4 108.988 68.632 109.34 68.808C109.692 68.984 110.092 69.072 110.54 69.072C111.004 69.072 111.412 68.984 111.764 68.808C112.116 68.632 112.404 68.4 112.628 68.112C112.868 67.824 113.044 67.496 113.156 67.128C113.284 66.744 113.348 66.36 113.348 65.976ZM123.793 63V67.56C123.793 68.12 123.897 68.544 124.105 68.832C124.329 69.104 124.721 69.24 125.281 69.24C125.473 69.24 125.673 69.224 125.881 69.192C126.105 69.16 126.289 69.112 126.433 69.048L126.481 71.928C126.209 72.024 125.865 72.104 125.449 72.168C125.033 72.248 124.617 72.288 124.201 72.288C123.401 72.288 122.729 72.192 122.185 72C121.641 71.792 121.201 71.504 120.865 71.136C120.545 70.752 120.313 70.304 120.169 69.792C120.025 69.264 119.953 68.68 119.953 68.04V63H118.033V60.048H119.929V56.904H123.793V60.048H126.601V63H123.793ZM132.603 56.232C132.603 56.536 132.539 56.824 132.411 57.096C132.299 57.352 132.139 57.576 131.931 57.768C131.739 57.96 131.499 58.112 131.211 58.224C130.939 58.336 130.651 58.392 130.347 58.392C129.707 58.392 129.171 58.184 128.739 57.768C128.307 57.336 128.091 56.824 128.091 56.232C128.091 55.944 128.147 55.672 128.259 55.416C128.371 55.144 128.531 54.912 128.739 54.72C128.947 54.528 129.187 54.376 129.459 54.264C129.731 54.136 130.027 54.072 130.347 54.072C130.651 54.072 130.939 54.128 131.211 54.24C131.499 54.352 131.739 54.504 131.931 54.696C132.139 54.888 132.299 55.12 132.411 55.392C132.539 55.648 132.603 55.928 132.603 56.232ZM128.379 72V60.048H132.315V72H128.379ZM150.577 72V65.472C150.577 65.136 150.553 64.816 150.505 64.512C150.457 64.192 150.369 63.92 150.241 63.696C150.113 63.472 149.937 63.296 149.713 63.168C149.505 63.024 149.225 62.952 148.873 62.952C148.537 62.952 148.241 63.024 147.985 63.168C147.745 63.312 147.537 63.504 147.361 63.744C147.201 63.984 147.081 64.264 147.001 64.584C146.921 64.888 146.881 65.208 146.881 65.544V72H142.945V65.184C142.945 64.496 142.809 63.952 142.537 63.552C142.265 63.152 141.833 62.952 141.241 62.952C140.617 62.952 140.129 63.2 139.777 63.696C139.441 64.192 139.273 64.8 139.273 65.52V72H135.313V60.048H139.129V61.704H139.177C139.321 61.448 139.497 61.2 139.705 60.96C139.929 60.72 140.193 60.512 140.497 60.336C140.801 60.144 141.137 59.992 141.505 59.88C141.889 59.768 142.305 59.712 142.753 59.712C143.617 59.712 144.345 59.888 144.937 60.24C145.545 60.592 146.017 61.096 146.353 61.752C146.753 61.128 147.265 60.632 147.889 60.264C148.513 59.896 149.273 59.712 150.169 59.712C150.985 59.712 151.665 59.864 152.209 60.168C152.769 60.456 153.217 60.84 153.553 61.32C153.889 61.784 154.129 62.312 154.273 62.904C154.433 63.48 154.513 64.048 154.513 64.608V72H150.577ZM161.636 56.232C161.636 56.536 161.572 56.824 161.444 57.096C161.332 57.352 161.172 57.576 160.964 57.768C160.772 57.96 160.532 58.112 160.244 58.224C159.972 58.336 159.684 58.392 159.38 58.392C158.74 58.392 158.204 58.184 157.772 57.768C157.34 57.336 157.124 56.824 157.124 56.232C157.124 55.944 157.18 55.672 157.292 55.416C157.404 55.144 157.564 54.912 157.772 54.72C157.98 54.528 158.22 54.376 158.492 54.264C158.764 54.136 159.06 54.072 159.38 54.072C159.684 54.072 159.972 54.128 160.244 54.24C160.532 54.352 160.772 54.504 160.964 54.696C161.172 54.888 161.332 55.12 161.444 55.392C161.572 55.648 161.636 55.928 161.636 56.232ZM157.412 72V60.048H161.348V72H157.412ZM163.626 72V68.928L169.242 63.072H163.842V60.048H174.042V63L168.258 68.952H174.282V72H163.626ZM180.779 56.232C180.779 56.536 180.715 56.824 180.587 57.096C180.475 57.352 180.315 57.576 180.107 57.768C179.915 57.96 179.675 58.112 179.387 58.224C179.115 58.336 178.827 58.392 178.523 58.392C177.883 58.392 177.347 58.184 176.915 57.768C176.483 57.336 176.267 56.824 176.267 56.232C176.267 55.944 176.323 55.672 176.435 55.416C176.547 55.144 176.707 54.912 176.915 54.72C177.123 54.528 177.363 54.376 177.635 54.264C177.907 54.136 178.203 54.072 178.523 54.072C178.827 54.072 179.115 54.128 179.387 54.24C179.675 54.352 179.915 54.504 180.107 54.696C180.315 54.888 180.475 55.12 180.587 55.392C180.715 55.648 180.779 55.928 180.779 56.232ZM176.555 72V60.048H180.491V72H176.555ZM191.337 72V65.472C191.337 65.136 191.305 64.816 191.241 64.512C191.193 64.208 191.105 63.944 190.977 63.72C190.849 63.48 190.665 63.296 190.425 63.168C190.201 63.024 189.913 62.952 189.561 62.952C189.209 62.952 188.897 63.024 188.625 63.168C188.369 63.296 188.153 63.48 187.977 63.72C187.801 63.96 187.665 64.24 187.569 64.56C187.489 64.864 187.449 65.184 187.449 65.52V72H183.489V60.048H187.305V61.704H187.353C187.497 61.448 187.681 61.2 187.905 60.96C188.145 60.704 188.417 60.488 188.721 60.312C189.041 60.136 189.385 59.992 189.753 59.88C190.121 59.768 190.513 59.712 190.929 59.712C191.729 59.712 192.409 59.856 192.969 60.144C193.529 60.432 193.977 60.808 194.313 61.272C194.665 61.72 194.913 62.24 195.057 62.832C195.217 63.424 195.297 64.016 195.297 64.608V72H191.337ZM210.83 70.872C210.83 72.04 210.662 73.056 210.326 73.92C209.99 74.784 209.518 75.496 208.91 76.056C208.302 76.632 207.558 77.056 206.678 77.328C205.814 77.616 204.854 77.76 203.798 77.76C202.742 77.76 201.654 77.6 200.534 77.28C199.43 76.96 198.47 76.496 197.654 75.888L199.622 73.08C200.198 73.592 200.83 73.968 201.518 74.208C202.222 74.464 202.91 74.592 203.582 74.592C204.734 74.592 205.582 74.288 206.126 73.68C206.686 73.072 206.966 72.264 206.966 71.256V70.536H206.894C206.526 71.016 206.03 71.4 205.406 71.688C204.782 71.976 204.07 72.12 203.27 72.12C202.358 72.12 201.55 71.96 200.846 71.64C200.142 71.304 199.542 70.856 199.046 70.296C198.566 69.736 198.198 69.088 197.942 68.352C197.686 67.6 197.558 66.808 197.558 65.976C197.558 65.144 197.686 64.352 197.942 63.6C198.198 62.848 198.566 62.184 199.046 61.608C199.542 61.032 200.142 60.576 200.846 60.24C201.55 59.888 202.35 59.712 203.246 59.712C203.998 59.712 204.718 59.864 205.406 60.168C206.094 60.472 206.646 60.944 207.062 61.584H207.11V60.048H210.83V70.872ZM207.086 65.952C207.086 65.552 207.014 65.168 206.87 64.8C206.742 64.432 206.55 64.112 206.294 63.84C206.038 63.552 205.734 63.328 205.382 63.168C205.03 63.008 204.63 62.928 204.182 62.928C203.734 62.928 203.334 63.008 202.982 63.168C202.646 63.328 202.358 63.544 202.118 63.816C201.878 64.088 201.694 64.408 201.566 64.776C201.438 65.144 201.374 65.536 201.374 65.952C201.374 66.352 201.438 66.736 201.566 67.104C201.694 67.472 201.878 67.8 202.118 68.088C202.358 68.36 202.646 68.584 202.982 68.76C203.334 68.92 203.734 69 204.182 69C204.63 69 205.03 68.92 205.382 68.76C205.75 68.584 206.054 68.36 206.294 68.088C206.55 67.816 206.742 67.496 206.87 67.128C207.014 66.76 207.086 66.368 207.086 65.952ZM226.459 73.8C226.219 74.424 225.947 74.976 225.643 75.456C225.355 75.952 225.003 76.368 224.587 76.704C224.187 77.056 223.707 77.32 223.147 77.496C222.603 77.672 221.955 77.76 221.203 77.76C220.835 77.76 220.451 77.736 220.051 77.688C219.667 77.64 219.331 77.576 219.043 77.496L219.475 74.184C219.667 74.248 219.875 74.296 220.099 74.328C220.339 74.376 220.555 74.4 220.747 74.4C221.355 74.4 221.795 74.256 222.067 73.968C222.339 73.696 222.571 73.304 222.763 72.792L223.147 71.808L218.155 60.048H222.523L225.187 67.728H225.259L227.635 60.048H231.811L226.459 73.8ZM245.884 65.976C245.884 66.952 245.708 67.84 245.356 68.64C245.004 69.424 244.524 70.096 243.916 70.656C243.308 71.2 242.604 71.624 241.804 71.928C241.004 72.232 240.148 72.384 239.236 72.384C238.34 72.384 237.484 72.232 236.668 71.928C235.868 71.624 235.164 71.2 234.556 70.656C233.964 70.096 233.492 69.424 233.14 68.64C232.788 67.84 232.612 66.952 232.612 65.976C232.612 65 232.788 64.12 233.14 63.336C233.492 62.552 233.964 61.888 234.556 61.344C235.164 60.8 235.868 60.384 236.668 60.096C237.484 59.808 238.34 59.664 239.236 59.664C240.148 59.664 241.004 59.808 241.804 60.096C242.604 60.384 243.308 60.8 243.916 61.344C244.524 61.888 245.004 62.552 245.356 63.336C245.708 64.12 245.884 65 245.884 65.976ZM242.092 65.976C242.092 65.592 242.028 65.216 241.9 64.848C241.772 64.48 241.588 64.16 241.348 63.888C241.108 63.6 240.812 63.368 240.46 63.192C240.108 63.016 239.7 62.928 239.236 62.928C238.772 62.928 238.364 63.016 238.012 63.192C237.66 63.368 237.364 63.6 237.124 63.888C236.9 64.16 236.724 64.48 236.596 64.848C236.484 65.216 236.428 65.592 236.428 65.976C236.428 66.36 236.484 66.736 236.596 67.104C236.724 67.472 236.908 67.808 237.148 68.112C237.388 68.4 237.684 68.632 238.036 68.808C238.388 68.984 238.796 69.072 239.26 69.072C239.724 69.072 240.132 68.984 240.484 68.808C240.836 68.632 241.132 68.4 241.372 68.112C241.612 67.808 241.788 67.472 241.9 67.104C242.028 66.736 242.092 66.36 242.092 65.976ZM256.128 72V70.344H256.08C255.936 70.616 255.744 70.872 255.504 71.112C255.28 71.352 255.008 71.56 254.688 71.736C254.384 71.912 254.04 72.056 253.656 72.168C253.288 72.28 252.896 72.336 252.48 72.336C251.68 72.336 251 72.192 250.44 71.904C249.896 71.616 249.448 71.248 249.096 70.8C248.76 70.336 248.512 69.816 248.352 69.24C248.208 68.648 248.136 68.048 248.136 67.44V60.048H252.096V66.528C252.096 66.864 252.12 67.184 252.168 67.488C252.216 67.792 252.304 68.064 252.432 68.304C252.576 68.544 252.76 68.736 252.984 68.88C253.208 69.008 253.504 69.072 253.872 69.072C254.56 69.072 255.08 68.816 255.432 68.304C255.8 67.792 255.984 67.192 255.984 66.504V60.048H259.92V72H256.128ZM270.63 63.264C270.454 63.216 270.278 63.184 270.102 63.168C269.942 63.152 269.782 63.144 269.622 63.144C269.094 63.144 268.646 63.24 268.278 63.432C267.926 63.624 267.638 63.856 267.414 64.128C267.206 64.4 267.054 64.696 266.958 65.016C266.862 65.336 266.814 65.616 266.814 65.856V72H262.878V60.048H266.67V61.776H266.718C267.022 61.168 267.454 60.672 268.014 60.288C268.574 59.904 269.222 59.712 269.958 59.712C270.118 59.712 270.27 59.72 270.414 59.736C270.574 59.752 270.702 59.776 270.798 59.808L270.63 63.264ZM35.808 91V95.56C35.808 96.12 35.912 96.544 36.12 96.832C36.344 97.104 36.736 97.24 37.296 97.24C37.488 97.24 37.688 97.224 37.896 97.192C38.12 97.16 38.304 97.112 38.448 97.048L38.496 99.928C38.224 100.024 37.88 100.104 37.464 100.168C37.048 100.248 36.632 100.288 36.216 100.288C35.416 100.288 34.744 100.192 34.2 100C33.656 99.792 33.216 99.504 32.88 99.136C32.56 98.752 32.328 98.304 32.184 97.792C32.04 97.264 31.968 96.68 31.968 96.04V91H30.048V88.048H31.944V84.904H35.808V88.048H38.616V91H35.808ZM47.4017 94.792H46.8977C46.4657 94.792 46.0257 94.816 45.5777 94.864C45.1457 94.896 44.7537 94.968 44.4017 95.08C44.0657 95.192 43.7857 95.36 43.5617 95.584C43.3377 95.792 43.2257 96.072 43.2257 96.424C43.2257 96.648 43.2737 96.84 43.3697 97C43.4817 97.16 43.6177 97.288 43.7777 97.384C43.9377 97.48 44.1217 97.552 44.3297 97.6C44.5377 97.632 44.7377 97.648 44.9297 97.648C45.7297 97.648 46.3377 97.432 46.7537 97C47.1857 96.552 47.4017 95.952 47.4017 95.2V94.792ZM40.1777 89.68C40.8817 89.008 41.6977 88.504 42.6257 88.168C43.5697 87.832 44.5297 87.664 45.5057 87.664C46.5137 87.664 47.3617 87.792 48.0497 88.048C48.7537 88.288 49.3217 88.672 49.7537 89.2C50.1857 89.712 50.4977 90.368 50.6897 91.168C50.8977 91.952 51.0017 92.888 51.0017 93.976V100H47.4017V98.728H47.3297C47.0257 99.224 46.5617 99.608 45.9377 99.88C45.3297 100.152 44.6657 100.288 43.9457 100.288C43.4657 100.288 42.9697 100.224 42.4577 100.096C41.9457 99.968 41.4737 99.76 41.0417 99.472C40.6257 99.184 40.2817 98.8 40.0097 98.32C39.7377 97.84 39.6017 97.248 39.6017 96.544C39.6017 95.68 39.8337 94.984 40.2977 94.456C40.7777 93.928 41.3857 93.52 42.1217 93.232C42.8737 92.944 43.7057 92.752 44.6177 92.656C45.5297 92.56 46.4177 92.512 47.2817 92.512V92.32C47.2817 91.728 47.0737 91.296 46.6577 91.024C46.2417 90.736 45.7297 90.592 45.1217 90.592C44.5617 90.592 44.0177 90.712 43.4897 90.952C42.9777 91.192 42.5377 91.48 42.1697 91.816L40.1777 89.68ZM61.9794 100L59.4114 96.328L56.7714 100H52.2114L56.9874 93.736L52.6674 88.048H57.2514L59.4834 91.24L61.7394 88.048H66.1794L61.8834 93.736L66.6114 100H61.9794ZM75.6424 92.656C75.6424 92.032 75.4424 91.496 75.0424 91.048C74.6584 90.6 74.0744 90.376 73.2904 90.376C72.9064 90.376 72.5544 90.44 72.2344 90.568C71.9144 90.68 71.6344 90.84 71.3944 91.048C71.1544 91.256 70.9624 91.504 70.8184 91.792C70.6744 92.064 70.5944 92.352 70.5784 92.656H75.6424ZM79.2664 94.168C79.2664 94.328 79.2664 94.488 79.2664 94.648C79.2664 94.808 79.2584 94.96 79.2424 95.104H70.5784C70.6104 95.44 70.7064 95.744 70.8664 96.016C71.0424 96.288 71.2584 96.528 71.5144 96.736C71.7864 96.928 72.0824 97.08 72.4024 97.192C72.7384 97.304 73.0824 97.36 73.4344 97.36C74.0584 97.36 74.5864 97.248 75.0184 97.024C75.4504 96.784 75.8024 96.48 76.0744 96.112L78.8104 97.84C78.2504 98.656 77.5064 99.288 76.5784 99.736C75.6664 100.168 74.6024 100.384 73.3864 100.384C72.4904 100.384 71.6424 100.248 70.8424 99.976C70.0424 99.688 69.3384 99.28 68.7304 98.752C68.1384 98.208 67.6664 97.544 67.3144 96.76C66.9784 95.976 66.8104 95.08 66.8104 94.072C66.8104 93.096 66.9784 92.216 67.3144 91.432C67.6504 90.632 68.1064 89.96 68.6824 89.416C69.2584 88.856 69.9384 88.424 70.7224 88.12C71.5064 87.816 72.3544 87.664 73.2664 87.664C74.1464 87.664 74.9544 87.816 75.6904 88.12C76.4264 88.408 77.0584 88.832 77.5864 89.392C78.1144 89.952 78.5224 90.632 78.8104 91.432C79.1144 92.232 79.2664 93.144 79.2664 94.168ZM88.6193 91.576C88.2993 91.272 87.9233 91.016 87.4913 90.808C87.0593 90.6 86.6033 90.496 86.1233 90.496C85.7553 90.496 85.4113 90.568 85.0913 90.712C84.7873 90.856 84.6353 91.104 84.6353 91.456C84.6353 91.792 84.8033 92.032 85.1393 92.176C85.4913 92.32 86.0513 92.48 86.8193 92.656C87.2673 92.752 87.7153 92.888 88.1633 93.064C88.6273 93.24 89.0433 93.472 89.4113 93.76C89.7793 94.048 90.0753 94.4 90.2993 94.816C90.5233 95.232 90.6353 95.728 90.6353 96.304C90.6353 97.056 90.4833 97.696 90.1793 98.224C89.8753 98.736 89.4753 99.152 88.9793 99.472C88.4993 99.792 87.9553 100.024 87.3473 100.168C86.7393 100.312 86.1313 100.384 85.5233 100.384C84.5473 100.384 83.5873 100.232 82.6433 99.928C81.7153 99.608 80.9393 99.144 80.3153 98.536L82.5233 96.208C82.8753 96.592 83.3073 96.912 83.8193 97.168C84.3313 97.424 84.8753 97.552 85.4513 97.552C85.7713 97.552 86.0833 97.48 86.3873 97.336C86.7073 97.176 86.8673 96.904 86.8673 96.52C86.8673 96.152 86.6753 95.88 86.2913 95.704C85.9073 95.528 85.3073 95.344 84.4913 95.152C84.0753 95.056 83.6593 94.928 83.2433 94.768C82.8273 94.608 82.4513 94.392 82.1153 94.12C81.7953 93.848 81.5313 93.512 81.3233 93.112C81.1153 92.712 81.0113 92.232 81.0113 91.672C81.0113 90.952 81.1633 90.344 81.4673 89.848C81.7713 89.336 82.1633 88.92 82.6433 88.6C83.1233 88.28 83.6513 88.048 84.2273 87.904C84.8193 87.744 85.4033 87.664 85.9793 87.664C86.8753 87.664 87.7473 87.808 88.5953 88.096C89.4593 88.368 90.1873 88.784 90.7793 89.344L88.6193 91.576ZM93.5076 94.312V83.008H97.5396V94.312H93.5076ZM97.8756 97.96C97.8756 98.28 97.8116 98.584 97.6836 98.872C97.5716 99.144 97.4036 99.384 97.1796 99.592C96.9716 99.784 96.7236 99.936 96.4356 100.048C96.1476 100.176 95.8436 100.24 95.5236 100.24C95.2036 100.24 94.8996 100.184 94.6116 100.072C94.3396 99.96 94.0996 99.8 93.8916 99.592C93.6836 99.384 93.5156 99.144 93.3876 98.872C93.2596 98.6 93.1956 98.304 93.1956 97.984C93.1956 97.68 93.2516 97.392 93.3636 97.12C93.4916 96.832 93.6596 96.584 93.8676 96.376C94.0756 96.168 94.3236 96.008 94.6116 95.896C94.8996 95.768 95.2036 95.704 95.5236 95.704C95.8436 95.704 96.1476 95.768 96.4356 95.896C96.7236 96.008 96.9716 96.168 97.1796 96.376C97.4036 96.568 97.5716 96.808 97.6836 97.096C97.8116 97.368 97.8756 97.656 97.8756 97.96Z" fill="#240548"/>
<defs>
<linearGradient id="paint0_linear_103_90" x1="0" y1="0" x2="288.379" y2="97.501" gradientUnits="userSpaceOnUse">
<stop stop-color="#A33AB1"/>
<stop offset="1" stop-color="#A33AB1" stop-opacity="0"/>
</linearGradient>
<radialGradient id="paint1_radial_103_90" cx="0" cy="0" r="1" gradientUnits="userSpaceOnUse" gradientTransform="translate(345 -169.329) rotate(114.558) scale(435.761 341.317)">
<stop stop-color="#82A5FF"/>
<stop offset="1" stop-color="#82A5FF" stop-opacity="0"/>
</radialGradient>
<radialGradient id="paint2_radial_103_90" cx="0" cy="0" r="1" gradientUnits="userSpaceOnUse" gradientTransform="translate(-39.4444 369.361) rotate(-51.7001) scale(294.012 297.259)">
<stop stop-color="#F2B6E6"/>
<stop offset="1" stop-color="#F2B6E6" stop-opacity="0"/>
</radialGradient>
<radialGradient id="paint3_radial_103_90" cx="0" cy="0" r="1" gradientUnits="userSpaceOnUse" gradientTransform="translate(130 406.576) rotate(-89.4376) scale(339.605 202.823)">
<stop stop-color="#D7B7FF"/>
<stop offset="1" stop-color="#D7B7FF" stop-opacity="0"/>
</radialGradient>
<linearGradient id="paint4_linear_103_90" x1="44.4135" y1="29.1915" x2="55.6339" y2="88.9798" gradientUnits="userSpaceOnUse">
<stop stop-color="#FFD251"/>
<stop offset="0.267238" stop-color="#FFD65D" stop-opacity="0.722651"/>
<stop offset="0.963542" stop-color="#FFDE7E" stop-opacity="0"/>
</linearGradient>
<linearGradient id="paint5_linear_103_90" x1="269.763" y1="1.56514" x2="246.939" y2="131.73" gradientUnits="userSpaceOnUse">
<stop stop-color="#FFD251"/>
<stop offset="0.267238" stop-color="#FFD65D" stop-opacity="0.722651"/>
<stop offset="0.963542" stop-color="#FFDE7E" stop-opacity="0"/>
</linearGradient>
<linearGradient id="paint6_linear_103_90" x1="157.518" y1="452.952" x2="143.553" y2="155.684" gradientUnits="userSpaceOnUse">
<stop stop-color="#FFD251"/>
<stop offset="0.267238" stop-color="#FFD65D" stop-opacity="0.722651"/>
<stop offset="0.963542" stop-color="#FFDE7E" stop-opacity="0"/>
</linearGradient>
<linearGradient id="paint7_linear_103_90" x1="289.151" y1="130.831" x2="286.967" y2="133.735" gradientUnits="userSpaceOnUse">
<stop/>
<stop offset="1" stop-color="#735386"/>
</linearGradient>
<linearGradient id="paint8_linear_103_90" x1="279.919" y1="113.628" x2="276.517" y2="120.593" gradientUnits="userSpaceOnUse">
<stop/>
<stop offset="1" stop-color="#735386"/>
</linearGradient>
<clipPath id="clip0_103_90">
<rect width="320" height="294" rx="16" fill="white"/>
</clipPath>
</defs>
</svg>
